<?xml version="1.0" standalone="no"?>
<!DOCTYPE svg PUBLIC "-//W3C//DTD SVG 1.1//EN" "http://www.w3.org/Graphics/SVG/1.1/DTD/svg11.dtd" >
<svg xmlns="http://www.w3.org/2000/svg" xmlns:xlink="http://www.w3.org/1999/xlink" version="1.1">
<metadata>
Created by FontForge 20170731 at Wed Feb 12 18:03:52 2014
 By Aleksey,,,
Copyright (c) 1991 The Monotype Corporation plc 
</metadata>
<defs>
<font id="ArialMT-Bold" horiz-adv-x="556" >
  <font-face 
    font-family="Arial MT"
    font-weight="700"
    font-stretch="normal"
    units-per-em="1000"
    panose-1="0 0 0 0 0 0 0 0 0 0"
    ascent="750"
    descent="-250"
    x-height="518"
    cap-height="716"
    bbox="-167 -210 1006 939"
    underline-thickness="50"
    underline-position="-150"
    unicode-range="U+000D-FB02"
  />
<missing-glyph horiz-adv-x="278" 
 />
    <glyph glyph-name=".notdef" horiz-adv-x="278" 
 />
    <glyph glyph-name=".null" horiz-adv-x="0" 
 />
    <glyph glyph-name=".null" horiz-adv-x="0" 
 />
    <glyph glyph-name="nonmarkingreturn" unicode="&#xd;" horiz-adv-x="250" 
 />
    <glyph glyph-name="space" unicode=" " horiz-adv-x="278" 
d="M182 0z" />
    <glyph glyph-name="exclam" unicode="!" horiz-adv-x="333" 
d="M95 137h137v-137h-137v137zM238 548l-35 -363h-78l-36 363v168h149v-168z" />
    <glyph glyph-name="quotedbl" unicode="&#x22;" horiz-adv-x="474" 
d="M278 595v121h150v-121l-23 -134h-101zM47 595v121h150v-121l-23 -134h-101z" />
    <glyph glyph-name="numbersign" unicode="#" 
d="M148 -12h-110l38 189h-66v109h88l29 144h-117v109h139l39 189h109l-38 -189h107l38 189h113l-39 -189h68v-109h-90l-29 -144h119v-109h-141l-39 -189h-109l38 189h-109zM237 430l-29 -144h108l29 144h-108z" />
    <glyph glyph-name="dollar" unicode="$" 
d="M244 310q-21 6 -53 19t-61 37.5t-50 64t-21 97.5q0 45 15 80t40 59.5t59 39t71 18.5v49h71v-49q12 -1 38.5 -7t55 -23t53.5 -50t35 -90l-124 -16q-1 7 -3.5 17t-9 21t-17 22t-28.5 18v-191q28 -7 63 -19t66 -35t52.5 -60.5t21.5 -96.5q0 -25 -7.5 -60t-29.5 -68t-62 -60
t-104 -36v-91h-71v89q-51 6 -87 25.5t-60.5 48.5t-38 64.5t-19.5 73.5l128 14q5 -25 14.5 -43.5t20.5 -32t22.5 -21.5t19.5 -12v204zM315 99q41 8 61.5 37t20.5 61q0 26 -10 43t-23.5 27.5t-27 15.5t-21.5 7v-191zM244 618q-32 -11 -48 -35t-16 -49q0 -3 1 -13t7 -22.5
t19 -25.5t37 -23v168z" />
    <glyph glyph-name="percent" unicode="%" horiz-adv-x="889" 
d="M152 540q0 -55 10.5 -83t39.5 -28t39.5 27t10.5 84q0 55 -10.5 83t-39.5 28q-28 0 -39 -27.5t-11 -83.5zM45 537q0 23 4.5 56t20.5 63t47.5 51t84.5 21q43 0 73 -14t48.5 -39t27 -59.5t8.5 -76.5q0 -23 -4 -55t-20 -61.5t-47 -50t-84 -20.5q-46 0 -76.5 15.5t-49 41
t-26 59t-7.5 69.5zM205 -27l382 755h98l-378 -755h-102zM528 158q0 24 4.5 57t21 62.5t47.5 50.5t85 21q42 0 72 -14t48.5 -39t27 -59.5t8.5 -76.5q0 -24 -4.5 -56t-20 -61.5t-46.5 -49.5t-84 -20q-46 0 -76.5 15.5t-49 41t-26 59t-7.5 69.5zM635 161q0 -55 10.5 -83
t39.5 -28t39.5 27.5t10.5 83.5q0 55 -10.5 83t-39.5 28t-39.5 -27t-10.5 -84z" />
    <glyph glyph-name="ampersand" unicode="&#x26;" horiz-adv-x="722" 
d="M624 -19q-35 17 -66 40.5t-51 42.5q-14 -13 -32.5 -26.5t-43 -25t-57 -18.5t-75.5 -7q-82 0 -132 25t-77 58.5t-36 69t-9 56.5q0 52 20.5 90t48 65t55 42.5t40.5 22.5q-34 38 -54 77.5t-20 79.5q0 33 13.5 61t39.5 49t63 33t84 12q46 0 83 -12.5t62.5 -34.5t39 -52
t13.5 -64q0 -56 -35 -94.5t-96 -76.5l100 -132q12 23 19.5 46t10.5 36l124 -28q-10 -36 -18.5 -60.5t-16 -41t-14 -27t-13.5 -18.5q12 -12 28 -24.5t32 -24t30.5 -20t22.5 -12.5zM280 328q-52 -27 -73 -61t-21 -66q0 -19 6.5 -37t19.5 -32t33 -22.5t48 -8.5q23 0 42 5.5
t34.5 13.5t28 17.5t22.5 17.5zM331 479q8 5 21.5 13.5t27.5 19.5q13 11 22.5 25t9.5 31q0 21 -17 42t-57 21q-35 0 -52 -17t-17 -37q0 -9 4.5 -19.5t10 -19.5t10.5 -15.5t6 -7.5z" />
    <glyph glyph-name="quotesingle" unicode="'" horiz-adv-x="238" 
d="M44 595v121h150v-121l-23 -134h-101z" />
    <glyph glyph-name="parenleft" unicode="(" horiz-adv-x="333" 
d="M205 -210q-69 105 -111 225t-42 245q0 74 13.5 140.5t35 125t49.5 109.5t57 93h93q-26 -57 -47.5 -111.5t-36.5 -111t-23.5 -117.5t-8.5 -132q0 -81 12.5 -152.5t30.5 -130.5t37 -104t32 -73q3 -3 3 -6h-94z" />
    <glyph glyph-name="parenright" unicode=")" horiz-adv-x="333" 
d="M128 728q69 -105 111 -225t42 -245q0 -73 -13 -140t-35 -125.5t-50 -109.5t-57 -93h-93q26 57 47.5 111.5t36.5 111t23.5 117.5t8.5 132q0 81 -12.5 152.5t-30.5 130.5t-37 104t-32 73q-3 3 -3 6h94z" />
    <glyph glyph-name="asterisk" unicode="*" horiz-adv-x="389" 
d="M49 444q7 8 18.5 21t28.5 30l45 43q-8 2 -15 3t-27 6l-17.5 5t-21.5 5q-17 5 -26.5 7.5t-16.5 4.5l28 86q6 -2 19 -8t29.5 -14t34 -17t32.5 -18q-7 42 -9.5 74.5t-2.5 55.5h87q0 -24 -3 -53t-10 -78l42 19q1 1 11 5t22.5 9.5t26 11.5t21.5 9l26 -89q-63 -13 -126 -24
q2 -2 3.5 -4t2.5 -2q2 -3 11 -13t11 -12l20 -23l7 -7q16 -18 21 -24t10 -13l-74 -50l-6 10q-13 20 -19 30t-17 29q-10 16 -14.5 23.5t-9.5 16.5q-3 -5 -5.5 -9t-10.5 -18q-3 -6 -5 -8q-1 -2 -4 -7t-6.5 -11t-6.5 -10.5t-4 -6.5l-21 -34q-1 -1 -3 -4t-2 -4z" />
    <glyph glyph-name="plus" unicode="+" horiz-adv-x="584" 
d="M228 290h-187v126h187v187h126v-187h188v-126h-188v-187h-126v187z" />
    <glyph glyph-name="comma" unicode="," horiz-adv-x="278" 
d="M205 137v-98q0 -23 -2 -51t-13.5 -55.5t-36 -52t-70.5 -40.5l-27 57q10 3 23 8.5t25 17t20.5 30t9.5 47.5h-66v137h137z" />
    <glyph glyph-name="hyphen" unicode="-" horiz-adv-x="333" 
d="M32 328h269v-137h-269v137z" />
    <glyph glyph-name="period" unicode="." horiz-adv-x="278" 
d="M71 137h137v-137h-137v137z" />
    <glyph glyph-name="slash" unicode="/" horiz-adv-x="278" 
d="M175 716h103l-177 -740h-101z" />
    <glyph glyph-name="zero" unicode="0" 
d="M277 719q43 0 75.5 -11.5t57 -31.5t41.5 -46t28 -56t17 -61t9 -60.5t4 -55t1 -44.5q0 -17 -0.5 -42t-3.5 -54t-9.5 -60t-17.5 -61t-27.5 -57t-41 -47t-57 -32t-75.5 -12t-76 11.5t-57.5 31.5t-41.5 46.5t-28 56.5t-17 61.5t-9 60.5t-3.5 54.5t-0.5 44.5q0 18 0.5 43
t3.5 54t9 60t17 61t28 56.5t41.5 46.5t57 31.5t75.5 11.5zM277 605q-24 0 -41 -12.5t-27.5 -42t-15 -77.5t-4.5 -120q0 -71 4.5 -119t15 -77.5t27.5 -42t41 -12.5q25 0 42 12.5t27.5 42t15 77.5t4.5 119t-4.5 119.5t-15 78t-27.5 42t-42 12.5z" />
    <glyph glyph-name="one" unicode="1" 
d="M258 0v517q-23 -21 -67 -51.5t-110 -52.5v124q5 2 31.5 13.5t59 34t64.5 56t48 78.5h112v-719h-138z" />
    <glyph glyph-name="two" unicode="2" 
d="M508 0h-481q4 40 16.5 75t36.5 71t60.5 75.5t87.5 87.5q36 33 62.5 59t44.5 49t27 45t9 48q0 33 -11 51.5t-26 28.5t-31 12.5t-25 2.5q-48 0 -71 -28.5t-27 -83.5l-137 14l5 32.5t10.5 41t21 44t34.5 40.5q37 31 83.5 42.5t83.5 11.5q62 0 105.5 -18.5t70.5 -47.5
t39 -64.5t12 -69.5q0 -47 -15.5 -86.5t-39 -73t-52 -61.5t-54.5 -52t-44 -41t-31 -30t-21.5 -24t-15.5 -23h273v-128z" />
    <glyph glyph-name="three" unicode="3" 
d="M172 206q2 -19 9 -37.5t19.5 -33.5t30.5 -24t43 -9q26 0 45 11t31 28t18 38t6 42q0 22 -6 42t-18 35.5t-30 25t-41 9.5q-20 0 -36.5 -3.5t-26.5 -6.5l15 111q20 0 40 4t36.5 15t27 29t10.5 45q0 35 -21.5 56.5t-57.5 21.5q-13 0 -27.5 -4.5t-27.5 -15.5t-22.5 -29
t-12.5 -46l-127 22q4 17 13.5 48.5t32.5 62t65 53.5t110 23q52 0 91.5 -17t66.5 -43.5t40.5 -59t13.5 -64.5q0 -35 -12.5 -61t-29 -44t-34 -28.5t-26.5 -15.5v-2q63 -13 99 -58.5t36 -110.5q0 -49 -19 -90.5t-51.5 -72t-76 -47.5t-93.5 -17q-55 0 -97 17t-71.5 45.5
t-46 64.5t-21.5 75z" />
    <glyph glyph-name="four" unicode="4" 
d="M314 144h-294v120l311 454h115v-453h89v-121h-89v-144h-132v144zM314 265v244h-2l-163 -244h165z" />
    <glyph glyph-name="five" unicode="5" 
d="M183 200q8 -54 37 -76t64 -22q19 0 37.5 7.5t33 24t23.5 43.5t9 65q0 26 -5.5 49t-18 40.5t-33 28t-50.5 10.5q-23 0 -50 -10.5t-56 -42.5l-111 16l70 373h363v-128h-259l-21 -122q14 8 36 15.5t57 7.5q45 0 85 -17t70 -48.5t47 -75.5t17 -98q0 -43 -15 -87.5t-45 -81
t-76 -60t-109 -23.5q-48 0 -88.5 13.5t-71.5 39t-51 62t-26 83.5z" />
    <glyph glyph-name="six" unicode="6" 
d="M377 526q-1 6 -4 19.5t-11 26.5t-23.5 23t-41.5 10q-36 0 -57 -20.5t-32 -50.5t-15 -64.5t-6 -62.5l2 -2q17 20 34.5 32t34.5 18t31.5 7.5t24.5 1.5q42 0 80 -16.5t66.5 -47t45.5 -74t17 -96.5q0 -54 -16.5 -98.5t-47 -76.5t-73 -49.5t-93.5 -17.5q-24 0 -54.5 6
t-61 23.5t-58.5 50t-47 85.5q-17 48 -22 96.5t-5 99.5q0 16 1 50t8.5 75t23 84.5t44.5 79t74 58.5t110 23q48 0 92 -18.5t73 -59.5q20 -29 28 -56.5t10 -43.5zM199 242q0 -27 6.5 -52t19.5 -44.5t31.5 -31.5t43.5 -12q33 0 51 17t26 39.5t9.5 43.5t1.5 28q0 6 -1.5 28
t-10.5 45.5t-28 42t-55 18.5q-7 0 -22.5 -3t-31.5 -15t-28 -36.5t-12 -67.5z" />
    <glyph glyph-name="seven" unicode="7" 
d="M44 706h470v-99q-46 -46 -89.5 -115t-77.5 -150.5t-54 -169.5t-20 -172h-133q2 84 20.5 165t48.5 155.5t68 140t80 117.5h-313v128z" />
    <glyph glyph-name="eight" unicode="8" 
d="M162 386q-18 8 -36 20t-32.5 30t-23 42t-8.5 56q0 35 12 68t37.5 59t66.5 42t98 16t97.5 -16t66.5 -42t38 -59t12 -68q0 -47 -23.5 -86t-74.5 -62q37 -15 60.5 -36t37 -44t19 -47.5t5.5 -47.5q0 -52 -17.5 -93.5t-49 -70.5t-73.5 -44t-92 -15q-48 0 -91.5 14t-76.5 41
t-52.5 67.5t-19.5 93.5q0 64 31 110.5t89 71.5zM190 524q0 -30 11 -47.5t25 -26t28.5 -11t21.5 -2.5q8 0 22.5 2.5t28.5 11.5t24.5 26.5t10.5 47.5q0 42 -25 63t-60 21q-23 0 -39.5 -7.5t-27 -19.5t-15.5 -27.5t-5 -30.5zM179 218q0 -32 9 -54.5t23 -37t32 -21.5t36 -7
q14 0 31 5t32 18t25 36t10 59q0 20 -6 40t-18 35.5t-31 25.5t-45 10q-31 0 -50 -13t-29.5 -30.5t-14.5 -36t-4 -29.5z" />
    <glyph glyph-name="nine" unicode="9" 
d="M179 181q1 -6 4 -19.5t11 -26.5t23.5 -23t41.5 -10q36 0 57 20.5t32 50.5t15 64.5t6 62.5l-2 2q-16 -20 -34 -32t-35 -18t-31.5 -7.5t-24.5 -1.5q-42 0 -80 16.5t-66.5 47t-45.5 74t-17 96.5q0 54 16.5 98.5t47 76.5t73 49.5t93.5 17.5q24 0 54.5 -6t61 -23.5t58.5 -50
t47 -85.5q17 -48 22 -96.5t5 -99.5q0 -16 -1 -50t-8.5 -75t-23 -84.5t-44.5 -79t-74 -58.5t-110 -23q-48 0 -92 18.5t-73 59.5q-20 29 -28 56.5t-10 43.5zM357 465q0 27 -6.5 52t-19 44.5t-31.5 31.5t-44 12q-33 0 -51 -17t-26 -39.5t-9.5 -43t-1.5 -28.5q0 -6 1.5 -28
t10.5 -45.5t28 -42t55 -18.5q7 0 22.5 3t31.5 15t28 36.5t12 67.5z" />
    <glyph glyph-name="colon" unicode=":" horiz-adv-x="333" 
d="M98 137h137v-137h-137v137zM98 518h137v-137h-137v137z" />
    <glyph glyph-name="semicolon" unicode=";" horiz-adv-x="333" 
d="M235 137v-98q0 -23 -2 -51t-13.5 -55.5t-36 -52t-70.5 -40.5l-27 57q10 3 23 8.5t25 17t20.5 30t9.5 47.5h-66v137h137zM98 518h137v-137h-137v137z" />
    <glyph glyph-name="less" unicode="&#x3c;" horiz-adv-x="584" 
d="M538 486l-343 -135l343 -133v-137l-492 212v117l492 214v-138z" />
    <glyph glyph-name="equal" unicode="=" horiz-adv-x="584" 
d="M41 308h501v-126h-501v126zM41 525h501v-126h-501v126z" />
    <glyph glyph-name="greater" unicode="&#x3e;" horiz-adv-x="584" 
d="M46 219l343 135l-343 133v137l492 -212v-117l-492 -214v138z" />
    <glyph glyph-name="question" unicode="?" horiz-adv-x="611" 
d="M50 514q2 37 18.5 74t48 67t79 49t110.5 19q57 0 104.5 -16t81.5 -44t53 -65.5t19 -79.5q0 -26 -7.5 -49t-24 -46t-42.5 -47.5t-62 -54.5q-22 -18 -34.5 -31t-19 -25.5t-8.5 -26.5t-2 -34v-8.5t1 -10.5h-125q-1 36 1 64t11.5 52.5t30 49t56.5 53.5q26 21 43.5 36t28 27.5
t15 25t4.5 28.5q0 24 -10.5 42.5t-27 30.5t-38 18t-43.5 6q-57 0 -90 -31.5t-45 -88.5zM240 137h137v-137h-137v137z" />
    <glyph glyph-name="at" unicode="@" horiz-adv-x="975" 
d="M969 9q-32 -65 -81.5 -107.5t-107 -67t-120 -34.5t-119.5 -10q-52 0 -115.5 7.5t-126.5 30.5t-119.5 65.5t-94.5 112.5q-35 64 -46 124.5t-11 105.5q0 84 28 171.5t88 158.5t155 116.5t229 45.5q100 0 177.5 -29.5t130.5 -80.5t80.5 -119.5t27.5 -146.5
q0 -63 -22.5 -125.5t-64.5 -113t-101.5 -82t-134.5 -31.5q-28 0 -44.5 6t-26 14.5t-13 18.5t-5.5 17q-5 -5 -15.5 -14.5t-27 -18.5t-39 -16t-51.5 -7q-44 0 -79 16.5t-59 44t-36.5 65t-12.5 79.5q0 51 17 108t50 105t82.5 79.5t114.5 31.5q11 0 27.5 -2t34 -8.5t35.5 -19.5
t32 -36l12 54h128l-73 -350q-5 -25 -6 -31.5t-1 -11.5q0 -18 9 -21t10 -3q18 0 47 18.5t56.5 52t47.5 81t20 105.5q0 42 -15.5 91t-53 91.5t-101 71t-159.5 28.5q-85 0 -148 -20.5t-108.5 -54.5t-75 -77.5t-46.5 -89t-24 -89.5t-7 -79q0 -58 19.5 -120t67 -113t127 -84
t199.5 -33q84 0 142.5 14.5t97.5 35.5t61.5 43t34.5 37h103zM338 210q0 -21 4 -42.5t14 -39t27 -28.5t42 -11q43 0 72.5 28t47.5 66.5t25.5 78.5t7.5 65q0 11 -3 30t-12.5 37.5t-27.5 32t-48 13.5q-42 0 -71 -26t-46 -62.5t-24.5 -76t-7.5 -65.5z" />
    <glyph glyph-name="A" unicode="A" horiz-adv-x="722" 
d="M562 0l-62 162h-286l-59 -162h-154l279 716h153l287 -716h-158zM454 283l-99 266l-97 -266h196z" />
    <glyph glyph-name="B" unicode="B" horiz-adv-x="722" 
d="M361 716q74 0 121 -6t81 -31q32 -23 54.5 -59t22.5 -84t-25.5 -90.5t-75.5 -64.5q46 -13 73 -36.5t41 -48.5t18 -49t4 -39q0 -27 -7.5 -54.5t-22 -53t-36 -46t-50.5 -33.5q-16 -7 -34 -11t-45 -6t-65.5 -3t-95.5 -1h-244v716h286zM219 595v-164h157q18 0 39.5 2t40 10.5
t31 25t12.5 44.5q0 24 -13 46t-41 30q-8 2 -16.5 3.5t-23.5 2t-39 0.5h-63h-84zM219 310v-189h134h28t32.5 1t31 2.5t22.5 4.5q20 7 31.5 18t17.5 22.5t8 23t2 19.5q0 37 -15.5 57t-41.5 29t-60.5 10.5t-72.5 1.5h-117z" />
    <glyph glyph-name="C" unicode="C" horiz-adv-x="722" 
d="M672 219q-6 -21 -20 -59.5t-46.5 -77t-87.5 -66.5t-143 -28q-73 0 -133 25.5t-103 73t-66.5 114.5t-23.5 151q0 75 19.5 143t60 119.5t104 82.5t150.5 31q15 0 40 -2t55 -10t62 -24.5t62 -45.5q27 -27 42 -58.5t26 -69.5l-143 -34q-14 59 -54.5 89.5t-96.5 30.5
q-44 0 -74.5 -14.5t-50.5 -38t-30.5 -51.5t-15.5 -55t-6 -49t-1 -34q0 -51 7.5 -98t30.5 -82q20 -30 55 -50t83 -20q36 0 62.5 12.5t45.5 33.5t31 48.5t19 56.5z" />
    <glyph glyph-name="D" unicode="D" horiz-adv-x="722" 
d="M339 716q30 0 66.5 -2t73 -13t72 -36t64.5 -70q9 -14 19.5 -34.5t19.5 -49.5t15 -68t6 -92q0 -16 -1.5 -46.5t-10 -68t-27 -78.5t-52.5 -78q-27 -30 -61.5 -46t-68 -23.5t-62.5 -9t-46 -1.5h-271v716h264zM219 595v-474h108q42 0 78 4.5t63 27t42.5 70.5t15.5 134
q0 89 -18 137.5t-50.5 71t-76.5 26t-97 3.5h-65z" />
    <glyph glyph-name="E" unicode="E" horiz-adv-x="667" 
d="M75 716h531v-121h-387v-159h360v-121h-360v-194h400v-121h-544v716z" />
    <glyph glyph-name="F" unicode="F" horiz-adv-x="611" 
d="M75 716h491v-121h-347v-170h300v-121h-300v-304h-144v716z" />
    <glyph glyph-name="G" unicode="G" horiz-adv-x="778" 
d="M400 384h311v-285q-16 -15 -45.5 -34.5t-69 -36.5t-88.5 -28.5t-103 -11.5q-97 0 -165.5 31.5t-112.5 84t-64.5 119.5t-20.5 137q0 66 19 131.5t61.5 118t110 85.5t164.5 33q44 0 91.5 -8t90 -31t75.5 -64t48 -107l-144 -27q-10 37 -30.5 59.5t-44 34.5t-46.5 15.5
t-39 3.5q-46 0 -91 -17t-77 -63q-23 -35 -31 -75.5t-8 -82.5q0 -40 8.5 -84.5t31 -82t62.5 -62.5t103 -25q32 0 59.5 7.5t49.5 17.5t37.5 20.5t22.5 15.5v90h-165v121z" />
    <glyph glyph-name="H" unicode="H" horiz-adv-x="722" 
d="M75 716h144v-282h283v282h144v-716h-144v313h-283v-313h-144v716z" />
    <glyph glyph-name="I" unicode="I" horiz-adv-x="278" 
d="M67 716h144v-716h-144v716z" />
    <glyph glyph-name="J" unicode="J" 
d="M477 716v-452q0 -19 -0.5 -42.5t-4.5 -48t-11.5 -49t-22.5 -46.5q-33 -50 -84 -70t-114 -20q-216 0 -222 234l137 18q2 -17 4 -39t10.5 -42t26 -33.5t49.5 -13.5q33 0 51 12.5t26 32.5t9.5 45.5t1.5 51.5v462h144z" />
    <glyph glyph-name="K" unicode="K" horiz-adv-x="722" 
d="M75 716h144v-318l293 318h194l-269 -279l284 -437h-187l-197 336l-118 -120v-216h-144v716z" />
    <glyph glyph-name="L" unicode="L" horiz-adv-x="611" 
d="M75 716h144v-595h360v-121h-504v716z" />
    <glyph glyph-name="M" unicode="M" horiz-adv-x="833" 
d="M71 716h216l129 -488h2l127 488h217v-716h-134v564h-2l-139 -564h-139l-141 564h-2v-564h-134v716z" />
    <glyph glyph-name="N" unicode="N" horiz-adv-x="722" 
d="M78 716h140l291 -478h2v478h134v-716h-145l-286 467h-2v-467h-134v716z" />
    <glyph glyph-name="O" unicode="O" horiz-adv-x="778" 
d="M43 354q0 86 23 155t67 118t108.5 75t147.5 26q88 0 153 -28.5t108 -78.5t64.5 -118t21.5 -146q0 -70 -18.5 -136.5t-60 -118t-107 -83t-159.5 -31.5q-101 0 -168 34t-107 87t-56.5 118t-16.5 127zM192 358q0 -61 11.5 -97.5t24.5 -58.5q9 -16 23 -32t34 -29t46 -21
t59 -8q29 0 63 9.5t64 36.5t50 75.5t20 126.5q0 30 -6 72t-26.5 80.5t-59.5 65t-105 26.5q-61 0 -100 -23.5t-60.5 -60t-29.5 -80t-8 -82.5z" />
    <glyph glyph-name="P" unicode="P" horiz-adv-x="667" 
d="M75 716h232q47 0 79.5 -1t55 -3.5t38.5 -6.5t30 -11q17 -8 37 -23t37 -39t28 -57.5t11 -78.5q0 -47 -12 -81.5t-29.5 -58.5t-38 -38.5t-37.5 -22.5q-38 -18 -91 -21.5t-101 -3.5h-95v-270h-144v716zM219 595v-204h80q28 0 58.5 1.5t56.5 11.5t43 30.5t17 59.5q0 20 -7 39
t-26 34q-12 11 -25 16.5t-30.5 8t-41 3t-55.5 0.5h-70z" />
    <glyph glyph-name="Q" unicode="Q" horiz-adv-x="778" 
d="M710 -72q-19 6 -34.5 12.5t-30.5 15t-31 19.5t-37 25q-7 5 -15.5 10.5t-11.5 7.5q-18 -8 -58.5 -19t-97.5 -11q-97 0 -164 30.5t-108.5 81.5t-60 118t-18.5 140q0 85 23 153.5t67 116.5t108.5 74t148.5 26q87 0 152 -27.5t108 -77t64.5 -117.5t21.5 -148q0 -61 -10 -106
t-23.5 -76.5t-28.5 -52t-26 -32.5q12 -8 40 -26t75 -35zM395 246q42 -14 76.5 -34.5t60.5 -39.5q6 7 15 20t18 35t15.5 54t6.5 77q0 38 -8 81.5t-29.5 80t-60 60.5t-100.5 24q-47 0 -80 -14.5t-55 -37.5t-34.5 -51.5t-18.5 -55.5t-7.5 -50.5t-1.5 -36.5q0 -79 21 -127
t51.5 -74.5t65 -35.5t61.5 -9q23 0 34 2t19 4q-12 8 -38 22t-51 23z" />
    <glyph glyph-name="R" unicode="R" horiz-adv-x="722" 
d="M75 716h304q40 0 67.5 -2t46.5 -4.5t30.5 -5.5t19.5 -6q31 -12 53 -32t36.5 -45t21 -52.5t6.5 -53.5q0 -59 -28 -106.5t-81 -69.5q-19 -8 -39 -14t-41 -8v-2q23 -13 40.5 -25.5t35 -31.5t37.5 -47t47 -71l87 -140h-173l-104 156q-33 48 -53.5 76.5t-39.5 43.5t-41.5 19
t-58.5 4h-29v-299h-144v716zM219 413h107h35.5t36.5 1t33.5 3t24.5 5q19 6 30 17t16.5 23.5t7 24t1.5 19.5q0 22 -8.5 41.5t-28.5 31.5q-10 6 -20 9.5t-25 5t-38 1.5h-59h-113v-182z" />
    <glyph glyph-name="S" unicode="S" horiz-adv-x="667" 
d="M183 246q3 -14 9 -37t22.5 -45.5t46 -38.5t78.5 -16q38 0 64.5 9t43.5 23.5t25 32t8 34.5q0 23 -10 37.5t-31.5 25.5t-56 20.5t-84.5 21.5q-27 7 -66 19t-75 36t-62 62.5t-26 97.5q0 29 11.5 64t40.5 65t79.5 50.5t129.5 20.5q53 0 101.5 -11t86 -36.5t61 -67
t25.5 -102.5l-145 -6q-2 14 -7 32t-18 34t-38 27t-68 11q-16 0 -37 -3t-39.5 -11t-31.5 -21.5t-13 -35.5q0 -34 37 -53.5t123 -39.5q41 -10 86 -23.5t83 -39t63 -67t25 -107.5q0 -33 -9.5 -62.5t-25.5 -54t-37.5 -42.5t-44.5 -29q-24 -11 -49 -17.5t-47.5 -9.5t-41.5 -4
t-31 -1q-29 0 -74.5 5t-91 28.5t-82 73t-47.5 138.5z" />
    <glyph glyph-name="T" unicode="T" horiz-adv-x="611" 
d="M234 595h-212v121h568v-121h-212v-595h-144v595z" />
    <glyph glyph-name="U" unicode="U" horiz-adv-x="722" 
d="M219 716v-387q0 -32 0.5 -55t2 -41t5 -31.5t10.5 -26.5q10 -19 25 -31.5t32 -19.5t35.5 -9.5t34.5 -2.5q52 0 80 15.5t41 43.5t15 66t2 84v395h144v-376q0 -48 -1.5 -86t-5.5 -68.5t-12 -54.5t-21 -44q-21 -32 -49.5 -51.5t-60.5 -30t-65 -14t-63 -3.5q-110 0 -169.5 31
t-87 80.5t-32 111t-4.5 123.5v382h144z" />
    <glyph glyph-name="V" unicode="V" horiz-adv-x="667" 
d="M0 716h157l179 -530h2l175 530h153l-256 -716h-155z" />
    <glyph glyph-name="W" unicode="W" horiz-adv-x="944" 
d="M2 716h148l107 -492h2l130 492h172l125 -500h2l108 500h146l-174 -716h-154l-141 535h-2l-141 -535h-157z" />
    <glyph glyph-name="X" unicode="X" horiz-adv-x="667" 
d="M245 374l-222 342h169l144 -230l140 230h168l-223 -348l245 -368h-174l-159 247l-159 -247h-174z" />
    <glyph glyph-name="Y" unicode="Y" horiz-adv-x="667" 
d="M261 301l-262 415h169l168 -283l166 283h166l-263 -416v-300h-144v301z" />
    <glyph glyph-name="Z" unicode="Z" horiz-adv-x="611" 
d="M15 130l376 465h-334v121h524v-113l-392 -482h407v-121h-581v130z" />
    <glyph glyph-name="bracketleft" unicode="[" horiz-adv-x="333" 
d="M71 716h243v-108h-112v-702h112v-108h-243v918z" />
    <glyph glyph-name="backslash" unicode="\" horiz-adv-x="278" 
d="M278 -24h-101l-177 740h103z" />
    <glyph glyph-name="bracketright" unicode="]" horiz-adv-x="333" 
d="M262 -202h-243v108h112v702h-112v108h243v-918z" />
    <glyph glyph-name="asciicircum" unicode="^" horiz-adv-x="584" 
d="M240 716h109l179 -390h-139l-97 239l-96 -239h-140z" />
    <glyph glyph-name="underscore" unicode="_" horiz-adv-x="500" 
d="M-6 -75h512v-50h-512v50z" />
    <glyph glyph-name="grave" unicode="`" horiz-adv-x="333" 
d="M241 582h-87l-134 146h153z" />
    <glyph glyph-name="a" unicode="a" 
d="M52 383q9 31 23 58t39.5 46.5t64.5 31t97 11.5q82 0 126.5 -17.5t65 -45t24 -62.5t3.5 -70q0 -12 -0.5 -41t-0.5 -61v-60v-39q1 -25 3 -43.5t5.5 -33t9 -28t12.5 -29.5h-135q-2 5 -4.5 11.5t-5.5 17.5l-8 28q-10 -10 -24.5 -22t-34.5 -22.5t-45 -17.5t-57 -7
q-78 0 -125 42.5t-47 110.5q0 48 19.5 77.5t48 47t61.5 26t60 13.5q29 5 49.5 9.5t35.5 8t26.5 7.5t21.5 8v14q0 13 -1.5 26t-10.5 23.5t-28 17t-54 6.5q-25 0 -41 -6.5t-25.5 -16t-15 -21t-8.5 -21.5zM360 249q-11 -4 -22.5 -7.5t-35.5 -8.5q-3 0 -9.5 -1.5t-14 -3
t-14.5 -3t-9 -2.5q-9 -2 -23 -6t-26.5 -11.5t-21.5 -19.5t-9 -30q0 -11 4.5 -23.5t13.5 -23t23.5 -17.5t34.5 -7q24 0 44 9t36 23q22 19 25.5 44.5t3.5 60.5v27z" />
    <glyph glyph-name="b" unicode="b" horiz-adv-x="611" 
d="M68 716h137v-258q8 9 20.5 21t31 23.5t43.5 19.5t56 8q43 0 82.5 -16t69.5 -48.5t48 -82.5t18 -119q0 -70 -18 -121.5t-48.5 -86t-69.5 -51.5t-81 -17q-12 0 -30.5 3t-40.5 12t-45 26.5t-43 46.5h-2v-76h-128v716zM204 271q0 -57 10.5 -89t35.5 -56q19 -18 39.5 -23.5
t34.5 -5.5q18 0 37 7t35 25.5t26.5 49.5t10.5 79q0 22 -3.5 50.5t-15.5 54.5t-34.5 44t-60.5 18q-48 0 -81.5 -37.5t-33.5 -116.5z" />
    <glyph glyph-name="c" unicode="c" 
d="M391 341q-3 14 -8.5 28.5t-16 26.5t-27.5 19.5t-42 7.5q-42 0 -65 -19.5t-33.5 -45.5t-12.5 -51.5t-2 -37.5q0 -83 27.5 -126t87.5 -43q30 0 48.5 11.5t29 27t15 32.5t6.5 28l135 -23q-22 -97 -82 -142.5t-159 -45.5q-80 0 -129 30t-75.5 73t-35.5 89t-9 79q0 45 11.5 93
t40.5 87.5t77.5 65t122.5 25.5q62 0 103 -16t67 -40.5t40 -53.5t21 -55z" />
    <glyph glyph-name="d" unicode="d" horiz-adv-x="611" 
d="M420 0v76h-2q-20 -29 -43 -46.5t-45 -26.5t-40.5 -12t-30.5 -3q-42 0 -81 17t-69.5 51.5t-48.5 86t-18 121.5q0 69 18 119t48 82.5t69.5 48.5t82.5 16q32 0 56.5 -8t43 -19.5t31.5 -23.5t20 -21v258h137v-716h-128zM412 271q0 79 -33.5 116.5t-81.5 37.5q-38 0 -60.5 -18
t-34.5 -44t-15.5 -54.5t-3.5 -50.5q0 -48 10.5 -79t26.5 -49.5t35 -25.5t37 -7q14 0 34.5 5.5t39.5 23.5q25 24 35.5 56t10.5 89z" />
    <glyph glyph-name="e" unicode="e" 
d="M511 142q-4 -12 -15.5 -37.5t-37 -51.5t-67 -45.5t-106.5 -19.5q-17 0 -45.5 3t-60.5 15t-62.5 37t-51.5 69q-17 38 -24 75t-7 69q0 53 14 102t43.5 87.5t74.5 61.5t106 23q73 0 121 -27t76 -70.5t39 -99.5t10 -113h-344q1 -23 7.5 -46t20.5 -41t35 -29t50 -11
q24 0 39.5 8t25.5 19t14.5 23.5t7.5 21.5zM382 304q-1 42 -14 66.5t-30 36.5t-33.5 15t-24.5 3q-49 0 -76.5 -35t-26.5 -86h205z" />
    <glyph glyph-name="f" unicode="f" horiz-adv-x="333" 
d="M88 518v40q0 23 2.5 52.5t17.5 55.5t47.5 44t92.5 18q20 0 51 -3.5t63 -13.5l-18 -96q-19 5 -37.5 6.5t-25.5 1.5q-21 0 -32.5 -6.5t-16.5 -16.5t-6 -22t-1 -23v-37h103v-109h-103v-409h-137v409h-76v109h76z" />
    <glyph glyph-name="g" unicode="g" horiz-adv-x="611" 
d="M214 -53q1 -4 4 -17t18 -24q3 -2 17.5 -6.5t40.5 -4.5q43 0 66 9t33.5 25t12.5 36t2 43v76h-2q-26 -38 -66 -61t-87 -23q-49 0 -89 20.5t-67.5 55.5t-42.5 83t-15 103q0 80 22.5 132t55.5 82t71 42t70 12q36 0 63 -10t46 -23.5t30.5 -27.5t17.5 -23h2v72h128v-465
q0 -54 -6.5 -102t-31.5 -83.5t-74 -56.5t-134 -21q-45 0 -89.5 7t-79 26t-55 53.5t-18.5 89.5zM180 270q0 -27 5 -55t17.5 -51t34 -37.5t54.5 -14.5q14 0 34 5t39.5 21.5t33 47t13.5 81.5q0 25 -5 52.5t-18.5 51t-36.5 39t-58 15.5q-39 0 -61.5 -18.5t-34 -44t-14.5 -51.5
t-3 -41z" />
    <glyph glyph-name="h" unicode="h" horiz-adv-x="611" 
d="M207 452q24 28 47.5 44t44.5 23.5t38 9t28 1.5q23 0 57 -7.5t64 -30.5q21 -16 32 -39t16 -48.5t6 -51.5t1 -49v-304h-137v274q0 33 -1.5 60.5t-9.5 48t-25 31.5t-49 11q-42 0 -64.5 -18t-33 -43.5t-12.5 -54t-2 -49.5v-260h-137v716h137v-264z" />
    <glyph glyph-name="i" unicode="i" horiz-adv-x="278" 
d="M71 518h137v-518h-137v518zM71 716h137v-127h-137v127z" />
    <glyph glyph-name="j" unicode="j" horiz-adv-x="278" 
d="M205 16q0 -42 -2.5 -82.5t-17 -72.5t-46 -51.5t-90.5 -19.5q-31 0 -58 6.5t-38 8.5l24 117q5 -1 14 -2.5t20 -1.5q21 0 33 6.5t17 19.5t6 33t1 47v494h137v-502zM68 716h137v-127h-137v127z" />
    <glyph glyph-name="k" unicode="k" 
d="M68 716h137v-380l161 182h169l-177 -189l189 -329h-148l-130 233l-64 -67v-166h-137v716z" />
    <glyph glyph-name="l" unicode="l" horiz-adv-x="278" 
d="M71 716h137v-716h-137v716z" />
    <glyph glyph-name="m" unicode="m" horiz-adv-x="889" 
d="M190 518v-70h2q23 29 45 45t43 24.5t39 10.5t32 2q38 0 63.5 -9.5t42.5 -23t26.5 -27.5t14.5 -22q9 11 22.5 25t33 26.5t45 21.5t57.5 9q64 0 98.5 -23t50.5 -54.5t18.5 -65.5t2.5 -55v-332h-137v296q0 23 -1 46t-8 41.5t-22 30t-42 11.5t-51.5 -15.5t-34.5 -41.5
q-9 -22 -13 -46.5t-4 -72.5v-249h-137v284q0 33 -1 59t-7.5 44.5t-21 28t-41.5 9.5t-51.5 -13.5t-35.5 -36.5q-4 -9 -7.5 -18.5t-5.5 -23t-3.5 -33t-1.5 -48.5v-252h-137v518h127z" />
    <glyph glyph-name="n" unicode="n" horiz-adv-x="611" 
d="M404 265q0 32 -1.5 61t-9 51t-24.5 35t-49 13t-59 -16t-40 -45q-11 -23 -13 -60t-2 -69v-235h-137v518h128v-76h2q38 53 83.5 70.5t85.5 17.5q9 0 22.5 -1t29.5 -5t33.5 -11.5t33.5 -20.5q21 -16 31.5 -37t15.5 -44.5t6 -46.5t1 -42v-322h-137v265z" />
    <glyph glyph-name="o" unicode="o" horiz-adv-x="611" 
d="M38 266q0 46 16 93t48.5 85t83 62t119.5 24q68 0 118 -23.5t83.5 -62t50 -86.5t16.5 -97q0 -54 -18 -103t-52.5 -87t-84 -60.5t-112.5 -22.5q-31 0 -76.5 9.5t-88 39.5t-73 84.5t-30.5 144.5zM179 259q0 -41 10.5 -71t28 -49.5t40.5 -29t47 -9.5q23 0 46 9t41 28t29 49.5
t11 73.5q0 78 -37 118t-90 40q-25 0 -47.5 -9.5t-40 -29t-28 -49.5t-10.5 -71z" />
    <glyph glyph-name="p" unicode="p" horiz-adv-x="611" 
d="M196 518v-76h2q20 29 43 46.5t45 26.5t40.5 12t30.5 3q42 0 81 -17t69.5 -51.5t48.5 -86t18 -121.5q0 -69 -18 -119t-48 -82.5t-69.5 -48.5t-82.5 -16q-31 0 -56 8t-43.5 19.5t-31 23.5t-20.5 21v-257h-137v715h128zM204 247q0 -79 33.5 -116.5t81.5 -37.5q38 0 60.5 18
t34.5 44t15.5 54.5t3.5 50.5q0 48 -10.5 79t-26.5 49.5t-35 25.5t-37 7q-14 0 -34.5 -5.5t-39.5 -23.5q-25 -24 -35.5 -56t-10.5 -89z" />
    <glyph glyph-name="q" unicode="q" horiz-adv-x="611" 
d="M546 -197h-137v257q-7 -9 -20 -21t-31.5 -23.5t-43 -19.5t-56.5 -8q-43 0 -82.5 16t-69.5 48.5t-48 82.5t-18 119q0 70 18 121.5t48.5 86t69.5 51.5t81 17q12 0 30.5 -3t40.5 -12t45 -26.5t43 -46.5h2v76h128v-715zM410 247q0 57 -10.5 89t-35.5 56q-19 18 -39.5 23.5
t-34.5 5.5q-18 0 -37 -7t-35 -25.5t-26.5 -49.5t-10.5 -79q0 -22 3.5 -50.5t15.5 -54.5t34.5 -44t60.5 -18q48 0 81.5 37.5t33.5 116.5z" />
    <glyph glyph-name="r" unicode="r" horiz-adv-x="389" 
d="M68 0v518h127v-73h2q22 38 47 61.5t70 23.5q23 0 47.5 -7t42.5 -18l-43 -120q-8 5 -26 13.5t-38 8.5q-33 0 -51.5 -18.5t-27.5 -51t-11 -78t-2 -99.5v-160h-137z" />
    <glyph glyph-name="s" unicode="s" 
d="M173 169q6 -26 18 -42t27 -25t32.5 -12.5t33.5 -3.5q5 0 21 1t33 6.5t31 17t14 32.5q0 23 -16 31t-40 13q-59 13 -109 26t-86 32.5t-56.5 49.5t-20.5 76q0 45 18.5 75t49.5 49t70 27t80 8q92 0 150 -30t80 -107l-130 -24q-6 23 -19 35.5t-27 18.5t-28 7.5t-23 1.5
t-24.5 -1t-31 -5t-27 -12.5t-11.5 -24.5q0 -11 7.5 -19t18.5 -13q10 -4 24.5 -8t30.5 -8.5t32 -8.5t29 -7q35 -8 69.5 -18.5t63 -28.5t46 -45.5t17.5 -70.5q0 -30 -13 -61t-41 -56t-73 -41t-109 -16q-19 0 -43 2t-50 9t-51.5 19.5t-48.5 32.5q-29 26 -40 54t-15 43z" />
    <glyph glyph-name="t" unicode="t" horiz-adv-x="333" 
d="M309 409h-93v-209q0 -28 0.5 -46.5t4 -30t11.5 -16.5t22 -5t26 3.5t25 8.5l4 1l12 -106q-34 -14 -65.5 -17.5t-42.5 -3.5q-16 0 -33 3t-33 9t-29 16t-21 25q-6 12 -10 24.5t-6 29t-2.5 37.5t-0.5 51v226h-63v109h63v103l138 81v-184h93v-109z" />
    <glyph glyph-name="u" unicode="u" horiz-adv-x="611" 
d="M414 78h-2q-28 -43 -73.5 -66.5t-96.5 -23.5q-41 0 -81.5 17t-61.5 51q-18 29 -23.5 59.5t-5.5 75.5v327h137v-238q0 -43 0.5 -69t2.5 -42t5 -25t8 -17q12 -19 31.5 -26.5t38.5 -7.5q29 0 55.5 14t41.5 43q4 7 6.5 17t4 27t2.5 42.5t1 63.5v218h137v-518h-127v78z" />
    <glyph glyph-name="v" unicode="v" 
d="M8 518h144l98 -264l27 -88h2q2 9 6.5 22.5t6.5 21.5l15 44l99 264h141l-206 -518h-124z" />
    <glyph glyph-name="w" unicode="w" horiz-adv-x="778" 
d="M3 518h134l96 -339h2l88 339h133l85 -339h2l98 339h135l-166 -518h-132l-88 334h-2l-87 -334h-133z" />
    <glyph glyph-name="x" unicode="x" 
d="M195 267l-179 251h168l91 -142l97 142h161l-176 -245l192 -273h-168l-106 161l-107 -161h-160z" />
    <glyph glyph-name="y" unicode="y" 
d="M155 518l123 -368h2l120 368h142l-183 -499q-2 -3 -5 -13t-8 -21q-15 -44 -30 -79.5t-37.5 -61.5t-57 -40t-89.5 -14q-27 0 -45.5 2.5t-32.5 5.5l-12 107q18 -4 30 -5t28 -1q12 0 26 2t28.5 12t28 30t23.5 56l-197 519h146z" />
    <glyph glyph-name="z" unicode="z" horiz-adv-x="500" 
d="M18 107l194 222q15 17 24.5 28.5t17 19.5t14 15t15.5 16q-9 -1 -15 -1.5l-12 -1t-14 -1t-22 -0.5h-183v114h428v-97l-198 -228q-3 -4 -14 -15.5t-22 -23.5l-34 -37q25 2 43 3t28 1h213v-121h-463v107z" />
    <glyph glyph-name="braceleft" unicode="{" horiz-adv-x="389" 
d="M31 318q34 2 55 12t32.5 31t15.5 53t4 77q0 55 3 99t22 74.5t60 47t116 16.5h26v-117q-30 0 -49.5 -2t-30.5 -9t-15.5 -21.5t-4.5 -38.5q0 -77 -5 -124.5t-15.5 -77t-28 -46.5t-42.5 -33q27 -15 44.5 -34.5t28 -50.5t14.5 -78t4 -119q0 -25 5.5 -39t17.5 -21t31 -8.5
t46 -1.5v-117h-26q-20 0 -42 1t-44.5 6t-43.5 15.5t-38 30.5q-23 28 -28 70t-5 95q0 43 -2 77.5t-12 59.5t-31.5 39t-61.5 16v118z" />
    <glyph glyph-name="bar" unicode="|" horiz-adv-x="280" 
d="M85 716h109v-913h-109v913z" />
    <glyph glyph-name="braceright" unicode="}" horiz-adv-x="389" 
d="M358 200q-34 -1 -55 -11.5t-32.5 -31.5t-15.5 -53t-4 -77q0 -55 -3 -99t-22 -74.5t-60 -47t-116 -16.5h-26v117q30 0 49.5 2t30.5 9t15.5 21.5t4.5 38.5q0 77 5 124.5t15.5 77t28 46.5t42.5 33q-27 15 -44.5 34.5t-28 50.5t-14.5 78t-4 119q0 25 -5.5 39t-17.5 21
t-31 8.5t-46 1.5v117h26q20 0 42 -1t44.5 -6t43.5 -15.5t38 -30.5q23 -28 28 -70t5 -95q0 -43 2 -77.5t12 -59.5t31.5 -39t61.5 -16v-118z" />
    <glyph glyph-name="asciitilde" unicode="~" horiz-adv-x="584" 
d="M33 380q23 25 45 38.5t41 20t34 7.5t24 1q20 0 36 -2t34 -7.5t40 -14t53 -20.5q36 -15 52 -18.5t26 -3.5q4 0 16.5 1.5t30.5 8t40 21t46 39.5v-131q-4 -4 -16 -14.5t-31.5 -22t-44.5 -20t-54 -8.5q-33 0 -59.5 9t-61.5 25q-37 16 -64 24t-54 8q-11 0 -25 -2t-31 -9
t-36 -20t-41 -36v126z" />
    <glyph glyph-name="exclamdown" unicode="&#xa1;" horiz-adv-x="333" 
d="M238 381h-137v137h137v-137zM95 -30l35 363h78l36 -363v-168h-149v168z" />
    <glyph glyph-name="cent" unicode="&#xa2;" 
d="M276 102q8 -2 22 -2q30 0 48.5 11.5t29 27t15 32.5t6.5 28l135 -23q-42 -188 -240 -188q-18 0 -30 1t-19 3l-57 -189l-59 17l56 188q-31 13 -58.5 36.5t-48.5 65.5q-20 40 -26.5 79t-6.5 72q0 39 10.5 86t38 87.5t76.5 68t126 27.5q17 0 27.5 -1t18.5 -2l55 184l60 -17
l-55 -181q18 -7 36 -17.5t34.5 -27.5t30.5 -42t24 -61l-135 -24q-2 10 -6.5 25.5t-18.5 29.5zM308 422q-46 4 -71.5 -15t-37 -45.5t-13.5 -54t-2 -39.5q0 -7 0.5 -24t4.5 -37t11.5 -40.5t20.5 -35.5z" />
    <glyph glyph-name="sterling" unicode="&#xa3;" 
d="M543 23q-24 -13 -60.5 -24t-74.5 -11q-19 0 -43.5 3.5t-72.5 17.5q-23 6 -39.5 10.5t-28.5 6.5t-22 3t-20 1q-45 0 -74 -15t-47 -27l-52 118q43 31 73 74t30 95q0 10 -0.5 16t-1.5 11h-101v109h76q-14 42 -17 74.5t-3 42.5q0 40 15.5 76t45 63.5t71.5 44t95 16.5
q23 0 57.5 -5t68 -24t61.5 -56.5t37 -102.5l-132 -19q-2 9 -6.5 25.5t-14.5 32.5t-27.5 28t-46.5 12q-24 0 -41 -8.5t-28 -22t-16.5 -30t-5.5 -31.5q0 -13 2.5 -29t6 -32t8 -30.5t7.5 -24.5h153v-109h-130q4 -30 -1 -54.5t-15.5 -45t-23.5 -37.5t-26 -32l-4 -4t-4 -3l2 -2
q19 11 39.5 12.5t26.5 1.5q10 0 17.5 -0.5t17 -2.5t24 -5.5t38.5 -9.5q6 -2 22 -5t32 -3q29 0 55.5 9.5t44.5 17.5z" />
    <glyph glyph-name="currency" unicode="&#xa4;" 
d="M24 523l81 87l66 -66q12 7 38.5 17.5t68.5 10.5t67.5 -10.5t38.5 -17.5l66 66l82 -83l-65 -65q16 -29 22 -56.5t6 -49.5q0 -29 -7.5 -56t-20.5 -51l65 -65l-81 -83l-67 66q-21 -13 -48.5 -20.5t-57.5 -7.5q-28 0 -54.5 7t-50.5 20l-64 -64l-83 83l64 64q-18 32 -23 60
t-5 46q0 58 26 105zM278 454q-20 0 -38 -7.5t-31.5 -21t-21 -31.5t-7.5 -38t7.5 -38t21 -31.5t31.5 -21.5t38 -8t38 8t31.5 21.5t21.5 31.5t8 38t-8 38t-21.5 31.5t-31.5 21t-38 7.5z" />
    <glyph glyph-name="yen" unicode="&#xa5;" 
d="M27 153v108h181v71h-181v108h112l-136 276h150l98 -208q14 -29 18 -41.5t7 -27.5h2q2 9 4 15.5t4.5 14t6.5 16.5t11 23l99 208h150l-137 -276h113v-108h-184v-71h184v-108h-184v-153h-137v153h-181z" />
    <glyph glyph-name="brokenbar" unicode="&#xa6;" horiz-adv-x="280" 
d="M86 177h109v-374h-109v374zM86 716h109v-374h-109v374z" />
    <glyph glyph-name="section" unicode="&#xa7;" 
d="M349 549q-2 35 -20 54.5t-54 19.5t-50.5 -15t-14.5 -30q0 -23 18 -41.5t62 -46.5q5 -3 18.5 -11.5t28.5 -18.5t28 -18.5t18 -11.5q39 -25 66 -48.5t43.5 -47t24 -47t7.5 -50.5q0 -33 -9.5 -58t-23.5 -44t-29.5 -31t-26.5 -20q35 -32 47 -64.5t12 -60.5q0 -29 -11 -59
t-36 -54.5t-65 -40t-98 -15.5q-44 0 -82.5 11t-68.5 33t-49.5 55.5t-25.5 77.5l134 16q3 -16 9.5 -31.5t17.5 -28t28 -20.5t41 -8q26 0 48 14t22 43q0 12 -3.5 21t-14.5 20q-7 7 -22.5 18t-34.5 24t-37.5 25t-31.5 20q-52 33 -87.5 60.5t-56.5 53.5t-30 52.5t-9 58.5
q0 19 5 42.5t19 48.5q17 30 34.5 43.5t31.5 21.5q-5 6 -13.5 16t-16.5 23.5t-13.5 31.5t-5.5 39q0 33 13.5 62t38.5 50t61.5 33t82.5 12q62 0 102 -17t64.5 -42.5t35.5 -53.5t14 -51zM361 143q20 18 31.5 35.5t11.5 36.5q0 25 -19 43t-54 44l-133 97q-4 -2 -11 -7.5t-14 -14
t-12 -20t-5 -25.5q0 -49 65 -94z" />
    <glyph glyph-name="dieresis" unicode="&#xa8;" horiz-adv-x="333" 
d="M2 716h118v-118h-118v118zM213 716h118v-118h-118v118z" />
    <glyph glyph-name="copyright" unicode="&#xa9;" horiz-adv-x="737" 
d="M369 654q-62 0 -117 -23.5t-96 -64t-64.5 -95.5t-23.5 -117t23.5 -117t64.5 -95.5t96 -64t117 -23.5t117 23.5t95.5 64t64 95.5t23.5 117t-23.5 117t-64 95.5t-95.5 64t-117 23.5zM538 272q-11 -36 -29 -60.5t-40 -39.5t-46.5 -21t-48.5 -6q-32 0 -65.5 10.5t-61 35
t-45 64t-17.5 96.5q0 47 12.5 85.5t36.5 66.5t59.5 43.5t81.5 15.5q44 0 73 -13.5t47.5 -32.5t28 -39t14.5 -34l-79 -19q-3 8 -8 19.5t-15 22t-25.5 18.5t-38.5 8q-33 0 -52.5 -14.5t-30.5 -36t-14.5 -45.5t-3.5 -42q0 -39 8.5 -66t22 -43t30.5 -23t34 -7q26 0 43 10
t27.5 24t15.5 28t8 22zM369 728q78 0 146 -29.5t118.5 -80t80 -118.5t29.5 -146t-29.5 -146t-80 -118.5t-118.5 -80t-146 -29.5t-146 29.5t-119 80t-80.5 118.5t-29.5 146t29.5 146t80.5 118.5t119 80t146 29.5z" />
    <glyph glyph-name="ordfeminine" unicode="&#xaa;" horiz-adv-x="370" 
d="M30 630q13 55 50 76.5t98 21.5q57 0 87.5 -10.5t44.5 -28.5t16.5 -43.5t2.5 -55.5v-116v-36t1.5 -26t4.5 -20t9 -20h-93q-5 9 -7 18t-4 16q-11 -11 -37.5 -27t-68.5 -16q-57 0 -87.5 30t-30.5 75q0 32 11.5 51.5t32 31.5t48.5 19t60 14q14 3 31 6.5t31 8.5q-1 15 -2 25
t-6 16t-14.5 9t-27.5 3q-29 0 -39 -9.5t-16 -25.5q-1 -2 -2 -3.5t-1 -2.5zM230 535q-5 -3 -10.5 -5.5t-20.5 -5.5q-38 -8 -60 -16.5t-22 -31.5q0 -11 11 -25.5t37 -14.5q6 0 17 2t21.5 10.5t18.5 24t8 42.5v20z" />
    <glyph glyph-name="guillemotleft" unicode="&#xab;" 
d="M382 260l127 -226h-108l-154 226l154 220h108zM177 260l127 -226h-108l-154 226l154 220h108z" />
    <glyph glyph-name="logicalnot" unicode="&#xac;" horiz-adv-x="584" 
d="M416 399h-375v126h501v-343h-126v217z" />
    <glyph glyph-name="registered" unicode="&#xae;" horiz-adv-x="737" 
d="M199 551h80q55 0 88.5 -0.5t54.5 -2.5t33 -6.5t24 -13.5q21 -16 31.5 -39.5t10.5 -48.5q0 -16 -5.5 -34t-18 -34t-33 -27.5t-50.5 -15.5v-2q14 -5 24 -12t19 -17.5t18.5 -25.5t22.5 -38l47 -80h-100l-33 65q-18 35 -32 54.5t-26.5 29t-25.5 12t-28 2.5h-21v-163h-80v397z
M279 380h33q27 0 49.5 1t39 6t25.5 16t9 32q0 20 -9.5 30.5t-26 15.5t-39 6t-48.5 1h-33v-108zM369 654q-62 0 -117 -23.5t-96 -64t-64.5 -95.5t-23.5 -117t23.5 -117t64.5 -95.5t96 -64t117 -23.5t117 23.5t95.5 64t64 95.5t23.5 117t-23.5 117t-64 95.5t-95.5 64
t-117 23.5zM369 728q78 0 146 -29.5t118.5 -80t80 -118.5t29.5 -146t-29.5 -146t-80 -118.5t-118.5 -80t-146 -29.5t-146 29.5t-119 80t-80.5 118.5t-29.5 146t29.5 146t80.5 118.5t119 80t146 29.5z" />
    <glyph glyph-name="macron" unicode="&#xaf;" horiz-adv-x="333" 
d="M9 701h315v-91h-315v91z" />
    <glyph glyph-name="degree" unicode="&#xb0;" horiz-adv-x="400" 
d="M199 719q32 0 60.5 -12t50 -33t34 -49.5t12.5 -60.5t-12.5 -60.5t-34 -49.5t-50 -33.5t-60.5 -12.5t-60.5 12.5t-49.5 33.5t-33 49.5t-12 60.5t12 60.5t33 49.5t49.5 33t60.5 12zM125 563q0 -31 22 -52.5t53 -21.5t53 21.5t22 52.5q0 32 -22 53.5t-53 21.5t-53 -22
t-22 -53z" />
    <glyph glyph-name="plusminus" unicode="&#xb1;" horiz-adv-x="584" 
d="M41 126h501v-126h-501v126zM228 371h-187v126h187v187h126v-187h188v-126h-188v-187h-126v187z" />
    <glyph glyph-name="twosuperior" unicode="&#xb2;" horiz-adv-x="333" 
d="M308 355h-296q3 22 9 40t19.5 36.5t35.5 39.5t57 49q23 18 38.5 30.5t25.5 23t14.5 20t4.5 21.5q0 15 -7 23t-15.5 12t-16.5 4.5t-11 0.5q-17 0 -27 -5t-15 -13.5t-7 -18.5t-3 -19l-92 8q2 12 6.5 31.5t19 39t43.5 33.5t78 14q39 0 66 -10.5t43 -26t23 -34t7 -34.5
q0 -18 -5.5 -36t-19.5 -37.5t-39.5 -42.5t-64.5 -51q-7 -5 -12 -9.5t-12 -11.5h153v-77z" />
    <glyph glyph-name="threesuperior" unicode="&#xb3;" horiz-adv-x="333" 
d="M109 471q1 -6 3 -15t7.5 -17t16 -14t28.5 -6q29 0 41.5 17t12.5 35q0 20 -13 34.5t-38 14.5q-11 0 -20.5 -1.5t-23.5 -5.5l11 71q5 0 16 0.5t22.5 4t20 11.5t8.5 23q0 19 -13.5 25.5t-27.5 6.5q-16 0 -25 -5t-14 -12.5t-6.5 -15.5t-2.5 -15l-87 12q3 13 9 31t20.5 34.5
t40 28.5t67.5 12q30 0 54.5 -8.5t41.5 -22t26 -31.5t9 -38t-11.5 -38t-35.5 -32q32 -11 49.5 -33.5t17.5 -54.5q0 -24 -11 -45.5t-31 -37.5t-47 -25.5t-60 -9.5q-11 0 -33 3t-45 14t-42.5 34t-24.5 62z" />
    <glyph glyph-name="acute" unicode="&#xb4;" horiz-adv-x="333" 
d="M160 728h153l-134 -146h-87z" />
    <glyph glyph-name="mu" unicode="&#xb5;" horiz-adv-x="611" 
d="M207 518v-234q0 -28 2 -61t11.5 -61t29 -46.5t54.5 -18.5q23 0 44.5 13t36.5 39q7 12 10.5 28.5t5.5 34.5t2.5 36t0.5 34v236h137v-518h-126v63h-2q-15 -31 -41 -53t-62 -22q-24 0 -40.5 7t-28 18t-19 24t-13.5 26h-2v-260h-137v715h137z" />
    <glyph glyph-name="paragraph" unicode="&#xb6;" 
d="M193 -197v511q-67 5 -105 30t-57.5 56.5t-24.5 63t-5 50.5q0 45 19 92t61 73q21 14 41 21t41 11t45 4.5t54 0.5h291v-128h-55v-785h-116v785h-73v-785h-116z" />
    <glyph glyph-name="periodcentered" unicode="&#xb7;" horiz-adv-x="278" 
d="M71 417h137v-137h-137v137z" />
    <glyph glyph-name="cedilla" unicode="&#xb8;" horiz-adv-x="333" 
d="M19 -139q17 -2 39.5 -4t52.5 -2q36 0 58.5 11.5t22.5 34.5q0 6 -2.5 13t-9.5 13t-19 10.5t-32 4.5q-17 0 -35 -3t-29 -6l13 48q20 7 44 10t38 3q25 0 47.5 -5.5t40 -17t27.5 -29t10 -40.5q0 -29 -15 -49.5t-39.5 -33.5t-55 -18.5t-61.5 -5.5q-8 0 -20.5 0.5t-26 1.5
t-26.5 2.5t-22 3.5v58z" />
    <glyph glyph-name="onesuperior" unicode="&#xb9;" horiz-adv-x="333" 
d="M149 355v250q-35 -23 -60 -32.5t-33 -11.5q-2 -1 -5.5 -1.5t-6.5 -1.5v75q5 1 21 6.5t35.5 17t38 28t28.5 40.5h75v-370h-93z" />
    <glyph glyph-name="ordmasculine" unicode="&#xba;" horiz-adv-x="365" 
d="M13 545q0 40 11 73.5t32.5 58t53 38t72.5 13.5q43 0 75 -14.5t53 -39.5t31.5 -58t10.5 -71q0 -40 -11 -74t-32.5 -58.5t-53 -38t-73.5 -13.5t-73.5 14t-52.5 38.5t-32 58t-11 73.5zM116 544q0 -15 2.5 -32.5t9 -32.5t19.5 -25t34 -10t34.5 9.5t21 24t10 32.5t2.5 34
q0 19 -2.5 37.5t-10 33t-21 23.5t-34.5 9t-34 -10.5t-20 -26.5t-9 -34t-2 -32z" />
    <glyph glyph-name="guillemotright" unicode="&#xbb;" 
d="M174 254l-127 226h108l154 -226l-154 -220h-108zM379 254l-127 226h108l154 -226l-154 -220h-108z" />
    <glyph glyph-name="onequarter" unicode="&#xbc;" horiz-adv-x="834" 
d="M655 53h-176v69l186 229h77v-228h52v-70h-52v-71h-87v71zM655 123v111h-2l-87 -111h89zM166 -25l425 753h77l-425 -753h-77zM149 357v250q-35 -23 -60 -32.5t-33 -11.5q-2 -1 -5.5 -1.5t-6.5 -1.5v75q5 1 21 6.5t35.5 17t38 28t28.5 40.5h75v-370h-93z" />
    <glyph glyph-name="onehalf" unicode="&#xbd;" horiz-adv-x="834" 
d="M166 -25l425 753h77l-425 -753h-77zM149 355v250q-35 -23 -60 -32.5t-33 -11.5q-2 -1 -5.5 -1.5t-6.5 -1.5v75q5 1 21 6.5t35.5 17t38 28t28.5 40.5h75v-370h-93zM808 -20h-296q3 22 9 40t19.5 36.5t35.5 39.5t57 49q23 18 38.5 30.5t25.5 23t14.5 20t4.5 21.5
q0 15 -7 23t-15.5 12t-16.5 4.5t-11 0.5q-17 0 -27 -5t-15 -13.5t-7 -18.5t-3 -19l-92 8q2 12 6.5 31.5t19 39t43.5 33.5t78 14q39 0 66 -10.5t43 -26t23 -34t7 -34.5q0 -18 -5.5 -36t-19.5 -37.5t-39.5 -42.5t-64.5 -51q-7 -5 -12 -9.5t-12 -11.5h153v-77z" />
    <glyph glyph-name="threequarters" unicode="&#xbe;" horiz-adv-x="834" 
d="M655 51h-176v69l186 229h77v-228h52v-70h-52v-71h-87v71zM655 121v111h-2l-87 -111h89zM177 -25l426 753h77l-425 -753h-78zM109 471q1 -6 3 -15t7.5 -17t16 -14t28.5 -6q29 0 41.5 17t12.5 35q0 20 -13 34.5t-38 14.5q-11 0 -20.5 -1.5t-23.5 -5.5l11 71q5 0 16 0.5
t22.5 4t20 11.5t8.5 23q0 19 -13.5 25.5t-27.5 6.5q-16 0 -25 -5t-14 -12.5t-6.5 -15.5t-2.5 -15l-87 12q3 13 9 31t20.5 34.5t40 28.5t67.5 12q30 0 54.5 -8.5t41.5 -22t26 -31.5t9 -38t-11.5 -38t-35.5 -32q32 -11 49.5 -33.5t17.5 -54.5q0 -24 -11 -45.5t-31 -37.5
t-47 -25.5t-60 -9.5q-11 0 -33 3t-45 14t-42.5 34t-24.5 62z" />
    <glyph glyph-name="questiondown" unicode="&#xbf;" horiz-adv-x="611" 
d="M561 4q-2 -37 -18.5 -74t-48 -67t-79 -49t-110.5 -19q-57 0 -104.5 16t-81.5 44t-53 65.5t-19 79.5q0 26 7.5 49t24 46t42.5 47.5t62 54.5q22 18 34.5 31t19 25.5t8.5 27t2 33.5v8.5t-1 10.5h125q1 -36 -1 -63.5t-11.5 -52.5t-30 -49.5t-56.5 -53.5q-26 -21 -43.5 -36
t-28 -27.5t-15 -25t-4.5 -28.5q0 -24 10.5 -42.5t27 -30.5t38 -18t43.5 -6q57 0 90 31.5t45 88.5zM371 381h-137v137h137v-137z" />
    <glyph glyph-name="Agrave" unicode="&#xc0;" horiz-adv-x="722" 
d="M562 0l-62 162h-286l-59 -162h-154l279 716h153l287 -716h-158zM454 283l-99 266l-97 -266h196zM436 763h-87l-134 146h153z" />
    <glyph glyph-name="Aacute" unicode="&#xc1;" horiz-adv-x="722" 
d="M562 0l-62 162h-286l-59 -162h-154l279 716h153l287 -716h-158zM454 283l-99 266l-97 -266h196zM355 909h153l-134 -146h-87z" />
    <glyph glyph-name="Acircumflex" unicode="&#xc2;" horiz-adv-x="722" 
d="M562 0l-62 162h-286l-59 -162h-154l279 716h153l287 -716h-158zM454 283l-99 266l-97 -266h196zM299 909h127l101 -144h-110l-57 73l-53 -73h-111z" />
    <glyph glyph-name="Atilde" unicode="&#xc3;" horiz-adv-x="722" 
d="M562 0l-62 162h-286l-59 -162h-154l279 716h153l287 -716h-158zM454 283l-99 266l-97 -266h196zM193 773q-2 39 6 63t22 38t30.5 18.5t30.5 4.5q20 0 35.5 -4.5t44.5 -17.5t42.5 -16.5t22.5 -3.5q13 0 20.5 5t11.5 11.5t5.5 14l2.5 12.5h63q0 -9 -1.5 -29.5t-9.5 -41.5
t-25.5 -36.5t-49.5 -15.5q-10 0 -18.5 1t-17.5 3.5t-20.5 7t-28.5 10.5q-17 7 -36.5 13t-33.5 6q-12 0 -19 -5t-10 -12t-4 -14t-1 -12h-62z" />
    <glyph glyph-name="Adieresis" unicode="&#xc4;" horiz-adv-x="722" 
d="M562 0l-62 162h-286l-59 -162h-154l279 716h153l287 -716h-158zM454 283l-99 266l-97 -266h196zM197 897h118v-118h-118v118zM408 897h118v-118h-118v118z" />
    <glyph glyph-name="Aring" unicode="&#xc5;" horiz-adv-x="722" 
d="M562 0l-62 162h-286l-59 -162h-154l279 716h153l287 -716h-158zM454 283l-99 266l-97 -266h196zM457 843q0 -41 -28.5 -68t-66.5 -27q-40 0 -68 28t-28 67q0 40 27.5 68t68.5 28q39 0 67 -27.5t28 -68.5zM405 843q0 19 -13 31.5t-30 12.5q-19 0 -31.5 -13t-12.5 -31
t13 -30.5t31 -12.5q17 0 30 12.5t13 30.5z" />
    <glyph glyph-name="AE" unicode="&#xc6;" horiz-adv-x="1000" 
d="M292 716h647v-121h-355v-160h327v-121h-327v-193h368v-121h-512v168h-248l-74 -168h-160zM245 293h196v314h-56z" />
    <glyph glyph-name="Ccedilla" unicode="&#xc7;" horiz-adv-x="722" 
d="M390 -12v-2q33 -3 54 -12.5t32.5 -22t16 -27.5t4.5 -28q0 -52 -48.5 -79t-126.5 -27h-11.5t-24.5 1t-29 2.5t-25 3.5v58q17 -2 27.5 -3t18.5 -1.5t15.5 -0.5h18.5q15 0 31 1.5t29.5 6t22.5 14t9 24.5q0 5 -2.5 12t-9 13.5t-18.5 11t-32 4.5q-17 0 -35 -3.5t-29 -6.5
l13 48q19 6 34.5 8.5t32.5 3.5v-1v2q-65 0 -121.5 25.5t-98 72.5t-65.5 114.5t-24 151.5q0 75 19.5 143t60 119.5t104 82.5t150.5 31q15 0 40 -2t55 -10t62 -24.5t62 -45.5q27 -27 42 -58.5t26 -69.5l-143 -34q-14 59 -54.5 89.5t-96.5 30.5q-44 0 -74.5 -14.5t-50.5 -38
t-30.5 -51.5t-15.5 -55t-6 -49t-1 -34q0 -51 7.5 -98t30.5 -82q20 -30 55 -50t83 -20q36 0 62.5 12.5t45.5 33.5t31 48.5t19 56.5l140 -44q-7 -24 -23 -63t-48.5 -76.5t-83.5 -64.5t-127 -27z" />
    <glyph glyph-name="Egrave" unicode="&#xc8;" horiz-adv-x="667" 
d="M75 716h531v-121h-387v-159h360v-121h-360v-194h400v-121h-544v716zM408 763h-87l-134 146h153z" />
    <glyph glyph-name="Eacute" unicode="&#xc9;" horiz-adv-x="667" 
d="M75 716h531v-121h-387v-159h360v-121h-360v-194h400v-121h-544v716zM327 909h153l-134 -146h-87z" />
    <glyph glyph-name="Ecircumflex" unicode="&#xca;" horiz-adv-x="667" 
d="M75 716h531v-121h-387v-159h360v-121h-360v-194h400v-121h-544v716zM271 909h127l101 -144h-110l-57 73l-53 -73h-111z" />
    <glyph glyph-name="Edieresis" unicode="&#xcb;" horiz-adv-x="667" 
d="M75 716h531v-121h-387v-159h360v-121h-360v-194h400v-121h-544v716zM169 897h118v-118h-118v118zM380 897h118v-118h-118v118z" />
    <glyph glyph-name="Igrave" unicode="&#xcc;" horiz-adv-x="278" 
d="M67 716h144v-716h-144v716zM214 763h-87l-134 146h153z" />
    <glyph glyph-name="Iacute" unicode="&#xcd;" horiz-adv-x="278" 
d="M67 716h144v-716h-144v716zM133 909h153l-134 -146h-87z" />
    <glyph glyph-name="Icircumflex" unicode="&#xce;" horiz-adv-x="278" 
d="M67 716h144v-716h-144v716zM77 909h127l101 -144h-110l-57 73l-53 -73h-111z" />
    <glyph glyph-name="Idieresis" unicode="&#xcf;" horiz-adv-x="278" 
d="M67 716h144v-716h-144v716zM-25 897h118v-118h-118v118zM186 897h118v-118h-118v118z" />
    <glyph glyph-name="Eth" unicode="&#xd0;" horiz-adv-x="722" 
d="M219 595v-188h153v-100h-153v-186h108q40 0 75.5 4t62.5 26.5t43 69.5t16 133q0 90 -17.5 139t-49.5 71.5t-76 26.5t-97 4h-65zM339 716q30 0 66.5 -2t73 -13t72 -36t64.5 -70q9 -14 19.5 -34.5t19.5 -49.5t15 -68t6 -92q0 -16 -1.5 -46.5t-10 -68t-27 -78.5t-52.5 -78
q-27 -30 -61.5 -46t-68 -23.5t-62.5 -9t-46 -1.5h-271v307h-74v100h74v309h264z" />
    <glyph glyph-name="Ntilde" unicode="&#xd1;" horiz-adv-x="722" 
d="M78 716h140l291 -478h2v478h134v-716h-145l-286 467h-2v-467h-134v716zM193 773q-2 39 6 63t22 38t30.5 18.5t30.5 4.5q20 0 35.5 -4.5t44.5 -17.5t42.5 -16.5t22.5 -3.5q13 0 20.5 5t11.5 11.5t5.5 14l2.5 12.5h63q0 -9 -1.5 -29.5t-9.5 -41.5t-25.5 -36.5t-49.5 -15.5
q-10 0 -18.5 1t-17.5 3.5t-20.5 7t-28.5 10.5q-17 7 -36.5 13t-33.5 6q-12 0 -19 -5t-10 -12t-4 -14t-1 -12h-62z" />
    <glyph glyph-name="Ograve" unicode="&#xd2;" horiz-adv-x="778" 
d="M43 354q0 86 23 155t67 118t108.5 75t147.5 26q88 0 153 -28.5t108 -78.5t64.5 -118t21.5 -146q0 -70 -18.5 -136.5t-60 -118t-107 -83t-159.5 -31.5q-101 0 -168 34t-107 87t-56.5 118t-16.5 127zM192 358q0 -61 11.5 -97.5t24.5 -58.5q9 -16 23 -32t34 -29t46 -21
t59 -8q29 0 63 9.5t64 36.5t50 75.5t20 126.5q0 30 -6 72t-26.5 80.5t-59.5 65t-105 26.5q-61 0 -100 -23.5t-60.5 -60t-29.5 -80t-8 -82.5zM464 763h-87l-134 146h153z" />
    <glyph glyph-name="Oacute" unicode="&#xd3;" horiz-adv-x="778" 
d="M43 354q0 86 23 155t67 118t108.5 75t147.5 26q88 0 153 -28.5t108 -78.5t64.5 -118t21.5 -146q0 -70 -18.5 -136.5t-60 -118t-107 -83t-159.5 -31.5q-101 0 -168 34t-107 87t-56.5 118t-16.5 127zM192 358q0 -61 11.5 -97.5t24.5 -58.5q9 -16 23 -32t34 -29t46 -21
t59 -8q29 0 63 9.5t64 36.5t50 75.5t20 126.5q0 30 -6 72t-26.5 80.5t-59.5 65t-105 26.5q-61 0 -100 -23.5t-60.5 -60t-29.5 -80t-8 -82.5zM383 909h153l-134 -146h-87z" />
    <glyph glyph-name="Ocircumflex" unicode="&#xd4;" horiz-adv-x="778" 
d="M43 354q0 86 23 155t67 118t108.5 75t147.5 26q88 0 153 -28.5t108 -78.5t64.5 -118t21.5 -146q0 -70 -18.5 -136.5t-60 -118t-107 -83t-159.5 -31.5q-101 0 -168 34t-107 87t-56.5 118t-16.5 127zM192 358q0 -61 11.5 -97.5t24.5 -58.5q9 -16 23 -32t34 -29t46 -21
t59 -8q29 0 63 9.5t64 36.5t50 75.5t20 126.5q0 30 -6 72t-26.5 80.5t-59.5 65t-105 26.5q-61 0 -100 -23.5t-60.5 -60t-29.5 -80t-8 -82.5zM327 909h127l101 -144h-110l-57 73l-53 -73h-111z" />
    <glyph glyph-name="Otilde" unicode="&#xd5;" horiz-adv-x="778" 
d="M43 354q0 86 23 155t67 118t108.5 75t147.5 26q88 0 153 -28.5t108 -78.5t64.5 -118t21.5 -146q0 -70 -18.5 -136.5t-60 -118t-107 -83t-159.5 -31.5q-101 0 -168 34t-107 87t-56.5 118t-16.5 127zM192 358q0 -61 11.5 -97.5t24.5 -58.5q9 -16 23 -32t34 -29t46 -21
t59 -8q29 0 63 9.5t64 36.5t50 75.5t20 126.5q0 30 -6 72t-26.5 80.5t-59.5 65t-105 26.5q-61 0 -100 -23.5t-60.5 -60t-29.5 -80t-8 -82.5zM221 773q-2 39 6 63t22 38t30.5 18.5t30.5 4.5q20 0 35.5 -4.5t44.5 -17.5t42.5 -16.5t22.5 -3.5q13 0 20.5 5t11.5 11.5t5.5 14
l2.5 12.5h63q0 -9 -1.5 -29.5t-9.5 -41.5t-25.5 -36.5t-49.5 -15.5q-10 0 -18.5 1t-17.5 3.5t-20.5 7t-28.5 10.5q-17 7 -36.5 13t-33.5 6q-12 0 -19 -5t-10 -12t-4 -14t-1 -12h-62z" />
    <glyph glyph-name="Odieresis" unicode="&#xd6;" horiz-adv-x="778" 
d="M43 354q0 86 23 155t67 118t108.5 75t147.5 26q88 0 153 -28.5t108 -78.5t64.5 -118t21.5 -146q0 -70 -18.5 -136.5t-60 -118t-107 -83t-159.5 -31.5q-101 0 -168 34t-107 87t-56.5 118t-16.5 127zM192 358q0 -61 11.5 -97.5t24.5 -58.5q9 -16 23 -32t34 -29t46 -21
t59 -8q29 0 63 9.5t64 36.5t50 75.5t20 126.5q0 30 -6 72t-26.5 80.5t-59.5 65t-105 26.5q-61 0 -100 -23.5t-60.5 -60t-29.5 -80t-8 -82.5zM225 897h118v-118h-118v118zM436 897h118v-118h-118v118z" />
    <glyph glyph-name="multiply" unicode="&#xd7;" horiz-adv-x="584" 
d="M202 352l-149 149l91 90l148 -148l148 148l88 -89l-147 -148l149 -148l-91 -91l-149 149l-147 -148l-89 89z" />
    <glyph glyph-name="Oslash" unicode="&#xd8;" horiz-adv-x="778" 
d="M682 750l68 -60l-82 -91q25 -33 38.5 -71t20 -72.5t8 -62t1.5 -39.5q0 -67 -18.5 -132.5t-59 -117.5t-106 -84t-158.5 -32q-51 0 -107.5 11.5t-107.5 49.5l-79 -89l-69 60l83 94q-12 16 -24.5 38t-23 51.5t-17 68.5t-6.5 90q0 70 19.5 136t61 117t107 82t158.5 31
q48 0 84 -7.5t62 -17.5t43 -21t27 -19zM515 563q-26 22 -58 31.5t-66 9.5q-44 0 -86 -16.5t-72 -61.5q-24 -36 -32.5 -79.5t-8.5 -87.5q0 -41 5.5 -74t16.5 -59zM270 152q36 -27 66 -33.5t52 -6.5q38 0 74 12.5t63.5 41t44.5 75t17 115.5q0 42 -5.5 76t-13.5 54z" />
    <glyph glyph-name="Ugrave" unicode="&#xd9;" horiz-adv-x="722" 
d="M219 716v-387q0 -32 0.5 -55t2 -41t5 -31.5t10.5 -26.5q10 -19 25 -31.5t32 -19.5t35.5 -9.5t34.5 -2.5q52 0 80 15.5t41 43.5t15 66t2 84v395h144v-376q0 -48 -1.5 -86t-5.5 -68.5t-12 -54.5t-21 -44q-21 -32 -49.5 -51.5t-60.5 -30t-65 -14t-63 -3.5q-110 0 -169.5 31
t-87 80.5t-32 111t-4.5 123.5v382h144zM436 763h-87l-134 146h153z" />
    <glyph glyph-name="Uacute" unicode="&#xda;" horiz-adv-x="722" 
d="M219 716v-387q0 -32 0.5 -55t2 -41t5 -31.5t10.5 -26.5q10 -19 25 -31.5t32 -19.5t35.5 -9.5t34.5 -2.5q52 0 80 15.5t41 43.5t15 66t2 84v395h144v-376q0 -48 -1.5 -86t-5.5 -68.5t-12 -54.5t-21 -44q-21 -32 -49.5 -51.5t-60.5 -30t-65 -14t-63 -3.5q-110 0 -169.5 31
t-87 80.5t-32 111t-4.5 123.5v382h144zM355 909h153l-134 -146h-87z" />
    <glyph glyph-name="Ucircumflex" unicode="&#xdb;" horiz-adv-x="722" 
d="M219 716v-387q0 -32 0.5 -55t2 -41t5 -31.5t10.5 -26.5q10 -19 25 -31.5t32 -19.5t35.5 -9.5t34.5 -2.5q52 0 80 15.5t41 43.5t15 66t2 84v395h144v-376q0 -48 -1.5 -86t-5.5 -68.5t-12 -54.5t-21 -44q-21 -32 -49.5 -51.5t-60.5 -30t-65 -14t-63 -3.5q-110 0 -169.5 31
t-87 80.5t-32 111t-4.5 123.5v382h144zM299 909h127l101 -144h-110l-57 73l-53 -73h-111z" />
    <glyph glyph-name="Udieresis" unicode="&#xdc;" horiz-adv-x="722" 
d="M219 716v-387q0 -32 0.5 -55t2 -41t5 -31.5t10.5 -26.5q10 -19 25 -31.5t32 -19.5t35.5 -9.5t34.5 -2.5q52 0 80 15.5t41 43.5t15 66t2 84v395h144v-376q0 -48 -1.5 -86t-5.5 -68.5t-12 -54.5t-21 -44q-21 -32 -49.5 -51.5t-60.5 -30t-65 -14t-63 -3.5q-110 0 -169.5 31
t-87 80.5t-32 111t-4.5 123.5v382h144zM197 897h118v-118h-118v118zM408 897h118v-118h-118v118z" />
    <glyph glyph-name="Yacute" unicode="&#xdd;" horiz-adv-x="667" 
d="M261 301l-262 415h169l168 -283l166 283h166l-263 -416v-300h-144v301zM327 909h153l-134 -146h-87z" />
    <glyph glyph-name="Thorn" unicode="&#xde;" horiz-adv-x="667" 
d="M75 716h144v-135h88q48 0 81 -1t55.5 -3.5t37.5 -7t29 -10.5q17 -8 37 -23t37 -38.5t28 -57.5t11 -79q0 -47 -12 -81.5t-29.5 -58.5t-38 -38.5t-37.5 -22.5q-38 -18 -91 -21.5t-101 -3.5h-95v-135h-144v716zM219 460v-204h80q28 0 58.5 1.5t56.5 11.5t43 30.5t17 59.5
q0 20 -7 39t-26 34q-12 10 -25.5 15.5t-30.5 8.5t-40.5 3.5t-55.5 0.5h-70z" />
    <glyph glyph-name="germandbls" unicode="&#xdf;" horiz-adv-x="611" 
d="M66 465q0 36 3.5 81.5t23.5 86t63.5 68t123.5 27.5q59 0 97.5 -14.5t61 -37t31 -48t8.5 -48.5q0 -19 -5.5 -40.5t-24.5 -56.5t-25 -48.5t-6 -23.5q0 -9 3 -17t10.5 -18.5t21.5 -24.5t36 -37q49 -49 67.5 -84.5t18.5 -75.5q0 -37 -13.5 -67.5t-37 -52.5t-55.5 -34t-68 -12
q-32 0 -58 9.5t-46 24t-33.5 30.5t-20.5 29l96 55q9 -17 21.5 -28t29.5 -11q20 0 34 15t14 37q0 11 -3 20.5t-12 20.5t-25 27t-42 40q-38 37 -60.5 67.5t-22.5 56.5q0 14 5.5 33t26.5 62q10 21 16.5 34.5t10 23.5t5 18t1.5 17q0 22 -16.5 37t-42.5 15q-28 0 -43.5 -12
t-22.5 -33t-8 -49.5t-1 -61.5v-465h-137v465z" />
    <glyph glyph-name="agrave" unicode="&#xe0;" 
d="M52 383q9 31 23 58t39.5 46.5t64.5 31t97 11.5q82 0 126.5 -17.5t65 -45t24 -62.5t3.5 -70q0 -12 -0.5 -41t-0.5 -61v-60v-39q1 -25 3 -43.5t5.5 -33t9 -28t12.5 -29.5h-135q-2 5 -4.5 11.5t-5.5 17.5l-8 28q-10 -10 -24.5 -22t-34.5 -22.5t-45 -17.5t-57 -7
q-78 0 -125 42.5t-47 110.5q0 48 19.5 77.5t48 47t61.5 26t60 13.5q29 5 49.5 9.5t35.5 8t26.5 7.5t21.5 8v14q0 13 -1.5 26t-10.5 23.5t-28 17t-54 6.5q-25 0 -41 -6.5t-25.5 -16t-15 -21t-8.5 -21.5zM360 249q-11 -4 -22.5 -7.5t-35.5 -8.5q-3 0 -9.5 -1.5t-14 -3
t-14.5 -3t-9 -2.5q-9 -2 -23 -6t-26.5 -11.5t-21.5 -19.5t-9 -30q0 -11 4.5 -23.5t13.5 -23t23.5 -17.5t34.5 -7q24 0 44 9t36 23q22 19 25.5 44.5t3.5 60.5v27zM353 582h-87l-134 146h153z" />
    <glyph glyph-name="aacute" unicode="&#xe1;" 
d="M52 383q9 31 23 58t39.5 46.5t64.5 31t97 11.5q82 0 126.5 -17.5t65 -45t24 -62.5t3.5 -70q0 -12 -0.5 -41t-0.5 -61v-60v-39q1 -25 3 -43.5t5.5 -33t9 -28t12.5 -29.5h-135q-2 5 -4.5 11.5t-5.5 17.5l-8 28q-10 -10 -24.5 -22t-34.5 -22.5t-45 -17.5t-57 -7
q-78 0 -125 42.5t-47 110.5q0 48 19.5 77.5t48 47t61.5 26t60 13.5q29 5 49.5 9.5t35.5 8t26.5 7.5t21.5 8v14q0 13 -1.5 26t-10.5 23.5t-28 17t-54 6.5q-25 0 -41 -6.5t-25.5 -16t-15 -21t-8.5 -21.5zM360 249q-11 -4 -22.5 -7.5t-35.5 -8.5q-3 0 -9.5 -1.5t-14 -3
t-14.5 -3t-9 -2.5q-9 -2 -23 -6t-26.5 -11.5t-21.5 -19.5t-9 -30q0 -11 4.5 -23.5t13.5 -23t23.5 -17.5t34.5 -7q24 0 44 9t36 23q22 19 25.5 44.5t3.5 60.5v27zM272 728h153l-134 -146h-87z" />
    <glyph glyph-name="acircumflex" unicode="&#xe2;" 
d="M52 383q9 31 23 58t39.5 46.5t64.5 31t97 11.5q82 0 126.5 -17.5t65 -45t24 -62.5t3.5 -70q0 -12 -0.5 -41t-0.5 -61v-60v-39q1 -25 3 -43.5t5.5 -33t9 -28t12.5 -29.5h-135q-2 5 -4.5 11.5t-5.5 17.5l-8 28q-10 -10 -24.5 -22t-34.5 -22.5t-45 -17.5t-57 -7
q-78 0 -125 42.5t-47 110.5q0 48 19.5 77.5t48 47t61.5 26t60 13.5q29 5 49.5 9.5t35.5 8t26.5 7.5t21.5 8v14q0 13 -1.5 26t-10.5 23.5t-28 17t-54 6.5q-25 0 -41 -6.5t-25.5 -16t-15 -21t-8.5 -21.5zM360 249q-11 -4 -22.5 -7.5t-35.5 -8.5q-3 0 -9.5 -1.5t-14 -3
t-14.5 -3t-9 -2.5q-9 -2 -23 -6t-26.5 -11.5t-21.5 -19.5t-9 -30q0 -11 4.5 -23.5t13.5 -23t23.5 -17.5t34.5 -7q24 0 44 9t36 23q22 19 25.5 44.5t3.5 60.5v27zM216 728h127l101 -144h-110l-57 73l-53 -73h-111z" />
    <glyph glyph-name="atilde" unicode="&#xe3;" 
d="M52 383q9 31 23 58t39.5 46.5t64.5 31t97 11.5q82 0 126.5 -17.5t65 -45t24 -62.5t3.5 -70q0 -12 -0.5 -41t-0.5 -61v-60v-39q1 -25 3 -43.5t5.5 -33t9 -28t12.5 -29.5h-135q-2 5 -4.5 11.5t-5.5 17.5l-8 28q-10 -10 -24.5 -22t-34.5 -22.5t-45 -17.5t-57 -7
q-78 0 -125 42.5t-47 110.5q0 48 19.5 77.5t48 47t61.5 26t60 13.5q29 5 49.5 9.5t35.5 8t26.5 7.5t21.5 8v14q0 13 -1.5 26t-10.5 23.5t-28 17t-54 6.5q-25 0 -41 -6.5t-25.5 -16t-15 -21t-8.5 -21.5zM360 249q-11 -4 -22.5 -7.5t-35.5 -8.5q-3 0 -9.5 -1.5t-14 -3
t-14.5 -3t-9 -2.5q-9 -2 -23 -6t-26.5 -11.5t-21.5 -19.5t-9 -30q0 -11 4.5 -23.5t13.5 -23t23.5 -17.5t34.5 -7q24 0 44 9t36 23q22 19 25.5 44.5t3.5 60.5v27zM110 592q-2 39 6 63t22 38t30.5 18.5t30.5 4.5q20 0 35.5 -4.5t44.5 -17.5t42.5 -16.5t22.5 -3.5q13 0 20.5 5
t11.5 11.5t5.5 14l2.5 12.5h63q0 -9 -1.5 -29.5t-9.5 -41.5t-25.5 -36.5t-49.5 -15.5q-10 0 -18.5 1t-17.5 3.5t-20.5 7t-28.5 10.5q-17 7 -36.5 13t-33.5 6q-12 0 -19 -5t-10 -12t-4 -14t-1 -12h-62z" />
    <glyph glyph-name="adieresis" unicode="&#xe4;" 
d="M52 383q9 31 23 58t39.5 46.5t64.5 31t97 11.5q82 0 126.5 -17.5t65 -45t24 -62.5t3.5 -70q0 -12 -0.5 -41t-0.5 -61v-60v-39q1 -25 3 -43.5t5.5 -33t9 -28t12.5 -29.5h-135q-2 5 -4.5 11.5t-5.5 17.5l-8 28q-10 -10 -24.5 -22t-34.5 -22.5t-45 -17.5t-57 -7
q-78 0 -125 42.5t-47 110.5q0 48 19.5 77.5t48 47t61.5 26t60 13.5q29 5 49.5 9.5t35.5 8t26.5 7.5t21.5 8v14q0 13 -1.5 26t-10.5 23.5t-28 17t-54 6.5q-25 0 -41 -6.5t-25.5 -16t-15 -21t-8.5 -21.5zM360 249q-11 -4 -22.5 -7.5t-35.5 -8.5q-3 0 -9.5 -1.5t-14 -3
t-14.5 -3t-9 -2.5q-9 -2 -23 -6t-26.5 -11.5t-21.5 -19.5t-9 -30q0 -11 4.5 -23.5t13.5 -23t23.5 -17.5t34.5 -7q24 0 44 9t36 23q22 19 25.5 44.5t3.5 60.5v27zM114 716h118v-118h-118v118zM325 716h118v-118h-118v118z" />
    <glyph glyph-name="aring" unicode="&#xe5;" 
d="M52 383q9 31 23 58t39.5 46.5t64.5 31t97 11.5q82 0 126.5 -17.5t65 -45t24 -62.5t3.5 -70q0 -12 -0.5 -41t-0.5 -61v-60v-39q1 -25 3 -43.5t5.5 -33t9 -28t12.5 -29.5h-135q-2 5 -4.5 11.5t-5.5 17.5l-8 28q-10 -10 -24.5 -22t-34.5 -22.5t-45 -17.5t-57 -7
q-78 0 -125 42.5t-47 110.5q0 48 19.5 77.5t48 47t61.5 26t60 13.5q29 5 49.5 9.5t35.5 8t26.5 7.5t21.5 8v14q0 13 -1.5 26t-10.5 23.5t-28 17t-54 6.5q-25 0 -41 -6.5t-25.5 -16t-15 -21t-8.5 -21.5zM360 249q-11 -4 -22.5 -7.5t-35.5 -8.5q-3 0 -9.5 -1.5t-14 -3
t-14.5 -3t-9 -2.5q-9 -2 -23 -6t-26.5 -11.5t-21.5 -19.5t-9 -30q0 -11 4.5 -23.5t13.5 -23t23.5 -17.5t34.5 -7q24 0 44 9t36 23q22 19 25.5 44.5t3.5 60.5v27zM384 662q0 -41 -28.5 -68t-66.5 -27q-40 0 -68 28t-28 67q0 40 27.5 68t68.5 28q39 0 67 -27.5t28 -68.5z
M332 662q0 19 -13 31.5t-30 12.5q-19 0 -31.5 -13t-12.5 -31t13 -30.5t31 -12.5q17 0 30 12.5t13 30.5z" />
    <glyph glyph-name="ae" unicode="&#xe6;" horiz-adv-x="889" 
d="M837 142q-5 -14 -17 -40t-37.5 -51.5t-67.5 -44t-107 -18.5q-45 0 -92.5 15t-92.5 57q-11 -10 -30.5 -22.5t-45.5 -23.5t-58 -18.5t-69 -7.5q-48 0 -81.5 14t-54.5 36t-30 49.5t-9 53.5q0 45 19.5 76.5t41.5 45.5q14 9 27.5 15.5t32.5 11.5t46 11t69 15q37 8 54 12.5
t29 8.5v13q0 8 -1.5 20.5t-9.5 24.5t-25 21t-49 9q-28 0 -46 -7.5t-28 -18t-14.5 -21.5t-6.5 -17l-125 23q12 37 30 64.5t45.5 45.5t67 27t94.5 9q38 0 65.5 -5.5t46.5 -13t30 -16t17 -13.5q6 5 17.5 13t28.5 16t40.5 13.5t54.5 5.5q62 0 104.5 -18.5t70 -47.5t42.5 -64.5
t22 -70.5t8 -64t1 -46h-345q1 -10 5 -31t15.5 -42t32.5 -37t55 -16q27 0 44.5 9t28 21t16 24t7.5 18zM326 238q-3 -1 -11.5 -3t-18.5 -4.5t-18.5 -5t-11.5 -3.5q-33 -8 -58.5 -22t-25.5 -47q0 -23 18.5 -45.5t57.5 -22.5q22 0 41 8t34 21q23 19 26.5 50t3.5 84zM707 305
q-1 12 -3.5 32t-13 39.5t-31.5 34t-57 14.5q-35 0 -55.5 -16.5t-30.5 -37.5t-12.5 -40.5t-2.5 -25.5h206z" />
    <glyph glyph-name="ccedilla" unicode="&#xe7;" 
d="M390 341q-1 7 -5 20.5t-13.5 27t-27.5 24t-48 10.5q-42 0 -64.5 -19.5t-33 -45.5t-12.5 -51.5t-2 -37.5q0 -37 6 -68t19 -53.5t35 -35t53 -12.5q30 0 49 11t29.5 26.5t15 32.5t6.5 29l135 -23q-3 -15 -13.5 -45t-34 -60.5t-64 -54.5t-104.5 -26v-2q17 -2 33 -8.5
t29.5 -17t21.5 -25.5t8 -34q0 -16 -7 -33.5t-25 -32t-48.5 -24t-77.5 -9.5q-2 0 -28 0.5t-55 5.5v49q6 -1 20 -2t39 -1q12 0 29 0.5t32.5 4.5t27 13t11.5 25q0 4 -2 11t-9 13.5t-19.5 11t-33.5 4.5q-5 0 -18.5 -1t-36.5 -6l15 48q17 5 28 6l22 2v2q-76 4 -121.5 36.5
t-69.5 74.5t-31 86.5t-7 72.5q0 42 11 89.5t39 87.5t77 66.5t124 26.5q62 0 103 -16t67 -41t40 -53.5t21 -54.5z" />
    <glyph glyph-name="egrave" unicode="&#xe8;" 
d="M511 142q-4 -12 -15.5 -37.5t-37 -51.5t-67 -45.5t-106.5 -19.5q-17 0 -45.5 3t-60.5 15t-62.5 37t-51.5 69q-17 38 -24 75t-7 69q0 53 14 102t43.5 87.5t74.5 61.5t106 23q73 0 121 -27t76 -70.5t39 -99.5t10 -113h-344q1 -23 7.5 -46t20.5 -41t35 -29t50 -11
q24 0 39.5 8t25.5 19t14.5 23.5t7.5 21.5zM382 304q-1 42 -14 66.5t-30 36.5t-33.5 15t-24.5 3q-49 0 -76.5 -35t-26.5 -86h205zM353 582h-87l-134 146h153z" />
    <glyph glyph-name="eacute" unicode="&#xe9;" 
d="M511 142q-4 -12 -15.5 -37.5t-37 -51.5t-67 -45.5t-106.5 -19.5q-17 0 -45.5 3t-60.5 15t-62.5 37t-51.5 69q-17 38 -24 75t-7 69q0 53 14 102t43.5 87.5t74.5 61.5t106 23q73 0 121 -27t76 -70.5t39 -99.5t10 -113h-344q1 -23 7.5 -46t20.5 -41t35 -29t50 -11
q24 0 39.5 8t25.5 19t14.5 23.5t7.5 21.5zM382 304q-1 42 -14 66.5t-30 36.5t-33.5 15t-24.5 3q-49 0 -76.5 -35t-26.5 -86h205zM272 728h153l-134 -146h-87z" />
    <glyph glyph-name="ecircumflex" unicode="&#xea;" 
d="M511 142q-4 -12 -15.5 -37.5t-37 -51.5t-67 -45.5t-106.5 -19.5q-17 0 -45.5 3t-60.5 15t-62.5 37t-51.5 69q-17 38 -24 75t-7 69q0 53 14 102t43.5 87.5t74.5 61.5t106 23q73 0 121 -27t76 -70.5t39 -99.5t10 -113h-344q1 -23 7.5 -46t20.5 -41t35 -29t50 -11
q24 0 39.5 8t25.5 19t14.5 23.5t7.5 21.5zM382 304q-1 42 -14 66.5t-30 36.5t-33.5 15t-24.5 3q-49 0 -76.5 -35t-26.5 -86h205zM216 728h127l101 -144h-110l-57 73l-53 -73h-111z" />
    <glyph glyph-name="edieresis" unicode="&#xeb;" 
d="M511 142q-4 -12 -15.5 -37.5t-37 -51.5t-67 -45.5t-106.5 -19.5q-17 0 -45.5 3t-60.5 15t-62.5 37t-51.5 69q-17 38 -24 75t-7 69q0 53 14 102t43.5 87.5t74.5 61.5t106 23q73 0 121 -27t76 -70.5t39 -99.5t10 -113h-344q1 -23 7.5 -46t20.5 -41t35 -29t50 -11
q24 0 39.5 8t25.5 19t14.5 23.5t7.5 21.5zM382 304q-1 42 -14 66.5t-30 36.5t-33.5 15t-24.5 3q-49 0 -76.5 -35t-26.5 -86h205zM114 716h118v-118h-118v118zM325 716h118v-118h-118v118z" />
    <glyph glyph-name="igrave" unicode="&#xec;" horiz-adv-x="278" 
d="M71 518h137v-518h-137v518zM214 582h-87l-134 146h153z" />
    <glyph glyph-name="iacute" unicode="&#xed;" horiz-adv-x="278" 
d="M71 518h137v-518h-137v518zM133 728h153l-134 -146h-87z" />
    <glyph glyph-name="icircumflex" unicode="&#xee;" horiz-adv-x="278" 
d="M71 518h137v-518h-137v518zM77 728h127l101 -144h-110l-57 73l-53 -73h-111z" />
    <glyph glyph-name="idieresis" unicode="&#xef;" horiz-adv-x="278" 
d="M71 518h137v-518h-137v518zM-25 716h118v-118h-118v118zM186 716h118v-118h-118v118z" />
    <glyph glyph-name="eth" unicode="&#xf0;" horiz-adv-x="611" 
d="M304 716q9 -7 15 -12t11.5 -9.5t11.5 -9t14 -11.5l89 42l22 -48l-70 -33q37 -37 69 -79.5t55.5 -89t37 -96.5t13.5 -103q0 -66 -20.5 -117.5t-56.5 -87.5t-85.5 -55t-107.5 -19q-64 0 -113 22.5t-83 60t-51.5 87t-17.5 102.5q0 60 20.5 108t53.5 81.5t74 51t81 17.5
q36 0 61 -10.5t45 -22.5l2 2q-9 16 -16 27.5t-14.5 22.5t-16.5 23.5t-23 30.5l-95 -44l-23 48l80 37q-15 14 -26.5 24t-23 19t-24.5 18.5t-32 22.5h144zM181 259q0 -44 11 -74.5t28.5 -49t39.5 -27t43 -8.5q26 0 48.5 10.5t39.5 30t27 48.5t10 65q0 38 -10.5 67.5t-28 49.5
t-40.5 30t-47 10q-21 0 -43 -8.5t-39 -27t-28 -47t-11 -69.5z" />
    <glyph glyph-name="ntilde" unicode="&#xf1;" horiz-adv-x="611" 
d="M404 265q0 32 -1.5 61t-9 51t-24.5 35t-49 13t-59 -16t-40 -45q-11 -23 -13 -60t-2 -69v-235h-137v518h128v-76h2q38 53 83.5 70.5t85.5 17.5q9 0 22.5 -1t29.5 -5t33.5 -11.5t33.5 -20.5q21 -16 31.5 -37t15.5 -44.5t6 -46.5t1 -42v-322h-137v265zM137 592q-2 39 6 63
t22 38t30.5 18.5t30.5 4.5q20 0 35.5 -4.5t44.5 -17.5t42.5 -16.5t22.5 -3.5q13 0 20.5 5t11.5 11.5t5.5 14l2.5 12.5h63q0 -9 -1.5 -29.5t-9.5 -41.5t-25.5 -36.5t-49.5 -15.5q-10 0 -18.5 1t-17.5 3.5t-20.5 7t-28.5 10.5q-17 7 -36.5 13t-33.5 6q-12 0 -19 -5t-10 -12
t-4 -14t-1 -12h-62z" />
    <glyph glyph-name="ograve" unicode="&#xf2;" horiz-adv-x="611" 
d="M38 266q0 46 16 93t48.5 85t83 62t119.5 24q68 0 118 -23.5t83.5 -62t50 -86.5t16.5 -97q0 -54 -18 -103t-52.5 -87t-84 -60.5t-112.5 -22.5q-31 0 -76.5 9.5t-88 39.5t-73 84.5t-30.5 144.5zM179 259q0 -41 10.5 -71t28 -49.5t40.5 -29t47 -9.5q23 0 46 9t41 28t29 49.5
t11 73.5q0 78 -37 118t-90 40q-25 0 -47.5 -9.5t-40 -29t-28 -49.5t-10.5 -71zM380 582h-87l-134 146h153z" />
    <glyph glyph-name="oacute" unicode="&#xf3;" horiz-adv-x="611" 
d="M38 266q0 46 16 93t48.5 85t83 62t119.5 24q68 0 118 -23.5t83.5 -62t50 -86.5t16.5 -97q0 -54 -18 -103t-52.5 -87t-84 -60.5t-112.5 -22.5q-31 0 -76.5 9.5t-88 39.5t-73 84.5t-30.5 144.5zM179 259q0 -41 10.5 -71t28 -49.5t40.5 -29t47 -9.5q23 0 46 9t41 28t29 49.5
t11 73.5q0 78 -37 118t-90 40q-25 0 -47.5 -9.5t-40 -29t-28 -49.5t-10.5 -71zM299 728h153l-134 -146h-87z" />
    <glyph glyph-name="ocircumflex" unicode="&#xf4;" horiz-adv-x="611" 
d="M38 266q0 46 16 93t48.5 85t83 62t119.5 24q68 0 118 -23.5t83.5 -62t50 -86.5t16.5 -97q0 -54 -18 -103t-52.5 -87t-84 -60.5t-112.5 -22.5q-31 0 -76.5 9.5t-88 39.5t-73 84.5t-30.5 144.5zM179 259q0 -41 10.5 -71t28 -49.5t40.5 -29t47 -9.5q23 0 46 9t41 28t29 49.5
t11 73.5q0 78 -37 118t-90 40q-25 0 -47.5 -9.5t-40 -29t-28 -49.5t-10.5 -71zM243 728h127l101 -144h-110l-57 73l-53 -73h-111z" />
    <glyph glyph-name="otilde" unicode="&#xf5;" horiz-adv-x="611" 
d="M38 266q0 46 16 93t48.5 85t83 62t119.5 24q68 0 118 -23.5t83.5 -62t50 -86.5t16.5 -97q0 -54 -18 -103t-52.5 -87t-84 -60.5t-112.5 -22.5q-31 0 -76.5 9.5t-88 39.5t-73 84.5t-30.5 144.5zM179 259q0 -41 10.5 -71t28 -49.5t40.5 -29t47 -9.5q23 0 46 9t41 28t29 49.5
t11 73.5q0 78 -37 118t-90 40q-25 0 -47.5 -9.5t-40 -29t-28 -49.5t-10.5 -71zM137 592q-2 39 6 63t22 38t30.5 18.5t30.5 4.5q20 0 35.5 -4.5t44.5 -17.5t42.5 -16.5t22.5 -3.5q13 0 20.5 5t11.5 11.5t5.5 14l2.5 12.5h63q0 -9 -1.5 -29.5t-9.5 -41.5t-25.5 -36.5
t-49.5 -15.5q-10 0 -18.5 1t-17.5 3.5t-20.5 7t-28.5 10.5q-17 7 -36.5 13t-33.5 6q-12 0 -19 -5t-10 -12t-4 -14t-1 -12h-62z" />
    <glyph glyph-name="odieresis" unicode="&#xf6;" horiz-adv-x="611" 
d="M38 266q0 46 16 93t48.5 85t83 62t119.5 24q68 0 118 -23.5t83.5 -62t50 -86.5t16.5 -97q0 -54 -18 -103t-52.5 -87t-84 -60.5t-112.5 -22.5q-31 0 -76.5 9.5t-88 39.5t-73 84.5t-30.5 144.5zM179 259q0 -41 10.5 -71t28 -49.5t40.5 -29t47 -9.5q23 0 46 9t41 28t29 49.5
t11 73.5q0 78 -37 118t-90 40q-25 0 -47.5 -9.5t-40 -29t-28 -49.5t-10.5 -71zM141 716h118v-118h-118v118zM352 716h118v-118h-118v118z" />
    <glyph glyph-name="divide" unicode="&#xf7;" horiz-adv-x="584" 
d="M41 416h501v-126h-501v126zM223 626h137v-137h-137v137zM223 217h137v-137h-137v137z" />
    <glyph glyph-name="oslash" unicode="&#xf8;" horiz-adv-x="611" 
d="M511 546l55 -44l-54 -62q25 -30 43 -78t18 -103t-18.5 -104t-53 -86t-84 -59t-110.5 -22q-35 0 -76.5 10t-75.5 29l-54 -63l-54 47l55 63q-35 39 -49.5 88t-14.5 104q0 54 18.5 102t53 84t85 57t113.5 21q33 0 58 -5.5t44 -12.5t31 -14t18 -11zM378 394q-8 7 -25 15.5
t-48 8.5q-23 0 -45.5 -9t-40.5 -28t-29 -49t-11 -73q0 -6 1.5 -28t12.5 -51zM237 122q9 -6 23 -14t45 -8q33 0 57 13.5t39.5 35.5t23 51t7.5 60q0 20 -3.5 40.5t-8.5 32.5z" />
    <glyph glyph-name="ugrave" unicode="&#xf9;" horiz-adv-x="611" 
d="M414 78h-2q-28 -43 -73.5 -66.5t-96.5 -23.5q-41 0 -81.5 17t-61.5 51q-18 29 -23.5 59.5t-5.5 75.5v327h137v-238q0 -43 0.5 -69t2.5 -42t5 -25t8 -17q12 -19 31.5 -26.5t38.5 -7.5q29 0 55.5 14t41.5 43q4 7 6.5 17t4 27t2.5 42.5t1 63.5v218h137v-518h-127v78z
M380 582h-87l-134 146h153z" />
    <glyph glyph-name="uacute" unicode="&#xfa;" horiz-adv-x="611" 
d="M414 78h-2q-28 -43 -73.5 -66.5t-96.5 -23.5q-41 0 -81.5 17t-61.5 51q-18 29 -23.5 59.5t-5.5 75.5v327h137v-238q0 -43 0.5 -69t2.5 -42t5 -25t8 -17q12 -19 31.5 -26.5t38.5 -7.5q29 0 55.5 14t41.5 43q4 7 6.5 17t4 27t2.5 42.5t1 63.5v218h137v-518h-127v78z
M299 728h153l-134 -146h-87z" />
    <glyph glyph-name="ucircumflex" unicode="&#xfb;" horiz-adv-x="611" 
d="M414 78h-2q-28 -43 -73.5 -66.5t-96.5 -23.5q-41 0 -81.5 17t-61.5 51q-18 29 -23.5 59.5t-5.5 75.5v327h137v-238q0 -43 0.5 -69t2.5 -42t5 -25t8 -17q12 -19 31.5 -26.5t38.5 -7.5q29 0 55.5 14t41.5 43q4 7 6.5 17t4 27t2.5 42.5t1 63.5v218h137v-518h-127v78z
M243 728h127l101 -144h-110l-57 73l-53 -73h-111z" />
    <glyph glyph-name="udieresis" unicode="&#xfc;" horiz-adv-x="611" 
d="M414 78h-2q-28 -43 -73.5 -66.5t-96.5 -23.5q-41 0 -81.5 17t-61.5 51q-18 29 -23.5 59.5t-5.5 75.5v327h137v-238q0 -43 0.5 -69t2.5 -42t5 -25t8 -17q12 -19 31.5 -26.5t38.5 -7.5q29 0 55.5 14t41.5 43q4 7 6.5 17t4 27t2.5 42.5t1 63.5v218h137v-518h-127v78z
M141 716h118v-118h-118v118zM352 716h118v-118h-118v118z" />
    <glyph glyph-name="yacute" unicode="&#xfd;" 
d="M155 518l123 -368h2l120 368h142l-183 -499q-2 -3 -5 -13t-8 -21q-15 -44 -30 -79.5t-37.5 -61.5t-57 -40t-89.5 -14q-27 0 -45.5 2.5t-32.5 5.5l-12 107q18 -4 30 -5t28 -1q12 0 26 2t28.5 12t28 30t23.5 56l-197 519h146zM272 728h153l-134 -146h-87z" />
    <glyph glyph-name="thorn" unicode="&#xfe;" horiz-adv-x="611" 
d="M205 716v-258q13 13 27 25.5t32 23t40.5 17t52.5 6.5q42 0 81.5 -16.5t69.5 -50t48 -83.5t18 -117q0 -64 -16.5 -115.5t-46 -86.5t-69 -54t-85.5 -19q-30 0 -53.5 7.5t-42 19t-32 25l-24.5 24.5v-261h-137v913h137zM204 271q0 -57 10.5 -89t35.5 -56q19 -18 39.5 -23.5
t34.5 -5.5q18 0 37 7t35 25.5t26.5 49.5t10.5 79q0 22 -3.5 50.5t-15.5 54.5t-34.5 44t-60.5 18q-48 0 -81.5 -37.5t-33.5 -116.5z" />
    <glyph glyph-name="ydieresis" unicode="&#xff;" 
d="M155 518l123 -368h2l120 368h142l-183 -499q-2 -3 -5 -13t-8 -21q-15 -44 -30 -79.5t-37.5 -61.5t-57 -40t-89.5 -14q-27 0 -45.5 2.5t-32.5 5.5l-12 107q18 -4 30 -5t28 -1q12 0 26 2t28.5 12t28 30t23.5 56l-197 519h146zM114 716h118v-118h-118v118zM325 716h118v-118
h-118v118z" />
    <glyph glyph-name="dotlessi" unicode="&#x131;" horiz-adv-x="278" 
d="M71 518h137v-518h-137v518z" />
    <glyph glyph-name="Lslash" unicode="&#x141;" horiz-adv-x="611" 
d="M75 716h144v-237l161 135v-119l-161 -134v-240h360v-121h-504v241l-76 -63v116l76 64v358z" />
    <glyph glyph-name="lslash" unicode="&#x142;" horiz-adv-x="278" 
d="M71 716h137v-248l67 57v-93l-67 -57v-375h-137v259l-67 -57v93l67 57v364z" />
    <glyph glyph-name="OE" unicode="&#x152;" horiz-adv-x="1000" 
d="M969 0h-460v84h-2q-17 -31 -40.5 -49.5t-49 -29t-51 -14t-45.5 -3.5q-31 0 -62.5 5.5t-61 19.5t-56.5 38.5t-49 62.5q-8 15 -18 36.5t-18.5 51.5t-14.5 69t-6 88q0 81 18 149t53.5 116.5t87.5 76t120 27.5q64 0 114 -25t79 -66h2v79h446v-121h-321v-160h294v-121h-294
v-193h335v-121zM342 604q-44 0 -74 -17t-49 -48t-27 -74t-8 -95q0 -71 11 -120.5t31 -80t49.5 -44t66.5 -13.5q35 0 64 12.5t50 42t32.5 78.5t11.5 122q0 118 -38 177.5t-120 59.5z" />
    <glyph glyph-name="oe" unicode="&#x153;" horiz-adv-x="944" 
d="M894 145q-14 -45 -39 -75t-55.5 -48.5t-64 -26t-66.5 -7.5q-6 0 -25.5 1t-45.5 8t-55.5 21.5t-56.5 41.5q-10 -9 -26 -21.5t-38.5 -24t-51.5 -19t-66 -7.5q-65 0 -114 23t-82 61t-50 86.5t-17 99.5q0 52 16 101t49 87t83 61t117 23q12 0 32 -2t44.5 -9t52 -21.5
t52.5 -39.5q6 6 19 18t34 24t50.5 21t69.5 9q20 0 48.5 -4.5t57.5 -18t56.5 -38t46.5 -65.5q13 -27 19.5 -54.5t9.5 -52t3 -45v-33.5h-341q4 -60 32.5 -93t76.5 -33q24 0 40 8t26.5 19t16 24t9.5 23zM182 251q0 -19 6 -45t20.5 -49.5t38 -40t58.5 -16.5q11 0 31 5t39.5 21.5
t34 49t14.5 87.5q0 76 -34.5 115.5t-84.5 39.5q-52 0 -87.5 -40t-35.5 -127zM769 305q0 8 -3 28.5t-13.5 42t-32 38t-58.5 16.5q-34 0 -54 -15.5t-30 -36.5t-13 -42t-4 -31h208z" />
    <glyph glyph-name="Scaron" unicode="&#x160;" horiz-adv-x="667" 
d="M183 246q3 -14 9 -37t22.5 -45.5t46 -38.5t78.5 -16q38 0 64.5 9t43.5 23.5t25 32t8 34.5q0 23 -10 37.5t-31.5 25.5t-56 20.5t-84.5 21.5q-27 7 -66 19t-75 36t-62 62.5t-26 97.5q0 29 11.5 64t40.5 65t79.5 50.5t129.5 20.5q53 0 101.5 -11t86 -36.5t61 -67
t25.5 -102.5l-145 -6q-2 14 -7 32t-18 34t-38 27t-68 11q-16 0 -37 -3t-39.5 -11t-31.5 -21.5t-13 -35.5q0 -34 37 -53.5t123 -39.5q41 -10 86 -23.5t83 -39t63 -67t25 -107.5q0 -33 -9.5 -62.5t-25.5 -54t-37.5 -42.5t-44.5 -29q-24 -11 -49 -17.5t-47.5 -9.5t-41.5 -4
t-31 -1q-29 0 -74.5 5t-91 28.5t-82 73t-47.5 138.5zM396 765h-127l-101 144h110l57 -73l53 73h111z" />
    <glyph glyph-name="scaron" unicode="&#x161;" 
d="M173 169q6 -26 18 -42t27 -25t32.5 -12.5t33.5 -3.5q5 0 21 1t33 6.5t31 17t14 32.5q0 23 -16 31t-40 13q-59 13 -109 26t-86 32.5t-56.5 49.5t-20.5 76q0 45 18.5 75t49.5 49t70 27t80 8q92 0 150 -30t80 -107l-130 -24q-6 23 -19 35.5t-27 18.5t-28 7.5t-23 1.5
t-24.5 -1t-31 -5t-27 -12.5t-11.5 -24.5q0 -11 7.5 -19t18.5 -13q10 -4 24.5 -8t30.5 -8.5t32 -8.5t29 -7q35 -8 69.5 -18.5t63 -28.5t46 -45.5t17.5 -70.5q0 -30 -13 -61t-41 -56t-73 -41t-109 -16q-19 0 -43 2t-50 9t-51.5 19.5t-48.5 32.5q-29 26 -40 54t-15 43zM341 584
h-127l-101 144h110l57 -73l53 73h111z" />
    <glyph glyph-name="Ydieresis" unicode="&#x178;" horiz-adv-x="667" 
d="M261 301l-262 415h169l168 -283l166 283h166l-263 -416v-300h-144v301zM169 897h118v-118h-118v118zM380 897h118v-118h-118v118z" />
    <glyph glyph-name="Zcaron" unicode="&#x17d;" horiz-adv-x="611" 
d="M15 130l376 465h-334v121h524v-113l-392 -482h407v-121h-581v130zM368 765h-127l-101 144h110l57 -73l53 73h111z" />
    <glyph glyph-name="zcaron" unicode="&#x17e;" horiz-adv-x="500" 
d="M18 107l194 222q15 17 24.5 28.5t17 19.5t14 15t15.5 16q-9 -1 -15 -1.5l-12 -1t-14 -1t-22 -0.5h-183v114h428v-97l-198 -228q-3 -4 -14 -15.5t-22 -23.5l-34 -37q25 2 43 3t28 1h213v-121h-463v107zM313 584h-127l-101 144h110l57 -73l53 73h111z" />
    <glyph glyph-name="florin" unicode="&#x192;" 
d="M155 507h98l8 44q7 38 14.5 69t24.5 52.5t47 33.5t82 12q9 0 46.5 -3.5t84.5 -17.5l-27 -110q-11 3 -32.5 8t-44.5 5q-18 0 -28.5 -5t-16.5 -13.5t-9 -20.5t-6 -26l-5 -28h101l-18 -103h-100l-84 -466q-5 -29 -13 -55.5t-24.5 -47t-46 -33t-77.5 -12.5q-24 0 -63.5 4
t-73.5 15l28 108q32 -7 49 -9t33 -2q17 0 27.5 4.5t16.5 14.5t9 26t7 38l73 415h-98z" />
    <glyph glyph-name="circumflex" unicode="&#x2c6;" horiz-adv-x="333" 
d="M104 728h127l101 -144h-110l-57 73l-53 -73h-111z" />
    <glyph glyph-name="caron" unicode="&#x2c7;" horiz-adv-x="333" 
d="M229 584h-127l-101 144h110l57 -73l53 73h111z" />
    <glyph glyph-name="breve" unicode="&#x2d8;" horiz-adv-x="333" 
d="M318 731q-3 -39 -17.5 -66t-35.5 -44t-46.5 -24.5t-52.5 -7.5t-53 8t-47 25t-35 44t-17 65h67q1 -7 3 -18.5t11 -23.5q8 -11 25 -19.5t46 -8.5q30 0 46.5 8.5t25 20t11 23t2.5 18.5h67z" />
    <glyph glyph-name="dotaccent" unicode="&#x2d9;" horiz-adv-x="333" 
d="M225 598h-118v118h118v-118z" />
    <glyph glyph-name="ring" unicode="&#x2da;" horiz-adv-x="333" 
d="M262 662q0 -41 -28.5 -68t-66.5 -27q-40 0 -68 28t-28 67q0 40 27.5 68t68.5 28q39 0 67 -27.5t28 -68.5zM210 662q0 19 -13 31.5t-30 12.5q-19 0 -31.5 -13t-12.5 -31t13 -30.5t31 -12.5q17 0 30 12.5t13 30.5z" />
    <glyph glyph-name="ogonek" unicode="&#x2db;" horiz-adv-x="333" 
d="M169 13q-5 -16 -7.5 -35t-2.5 -36q0 -33 15.5 -55t54.5 -22q23 0 40.5 4.5t25.5 7.5v-67q-30 -13 -56 -16.5t-38 -3.5q-23 0 -45 6t-39.5 19.5t-28 35t-10.5 53.5q0 27 5 52.5t13 56.5h73z" />
    <glyph glyph-name="tilde" unicode="&#x2dc;" horiz-adv-x="333" 
d="M-2 592q-2 39 6 63t22 38t30.5 18.5t30.5 4.5q20 0 35.5 -4.5t44.5 -17.5t42.5 -16.5t22.5 -3.5q13 0 20.5 5t11.5 11.5t5.5 14l2.5 12.5h63q0 -9 -1.5 -29.5t-9.5 -41.5t-25.5 -36.5t-49.5 -15.5q-10 0 -18.5 1t-17.5 3.5t-20.5 7t-28.5 10.5q-17 7 -36.5 13t-33.5 6
q-12 0 -19 -5t-10 -12t-4 -14t-1 -12h-62z" />
    <glyph glyph-name="hungarumlaut" unicode="&#x2dd;" horiz-adv-x="333" 
d="M104 728h153l-134 -146h-87zM295 728h153l-134 -146h-87z" />
    <glyph glyph-name="endash" unicode="&#x2013;" 
d="M-6 310h568v-102h-568v102z" />
    <glyph glyph-name="emdash" unicode="&#x2014;" horiz-adv-x="1000" 
d="M-6 310h1012v-102h-1012v102z" />
    <glyph glyph-name="quoteleft" unicode="&#x2018;" horiz-adv-x="278" 
d="M73 426v98q0 23 2 51t13.5 55.5t36 52t70.5 40.5l27 -57q-10 -3 -23 -8.5t-25 -17t-20.5 -30t-9.5 -47.5h66v-137h-137z" />
    <glyph glyph-name="quoteright" unicode="&#x2019;" horiz-adv-x="278" 
d="M205 716v-98q0 -23 -2 -51t-13.5 -55.5t-36 -51.5t-70.5 -41l-27 57q10 3 23 8.5t25 17t20.5 30t9.5 47.5h-66v137h137z" />
    <glyph glyph-name="quotesinglbase" unicode="&#x201a;" horiz-adv-x="278" 
d="M205 137v-98q0 -23 -2 -51t-13.5 -55.5t-36 -52t-70.5 -40.5l-27 57q10 3 23 8.5t25 17t20.5 30t9.5 47.5h-66v137h137z" />
    <glyph glyph-name="quotedblleft" unicode="&#x201c;" horiz-adv-x="500" 
d="M64 426v98q0 23 2 51t13.5 55.5t36 52t70.5 40.5l27 -57q-10 -3 -23 -8.5t-25 -17t-20.5 -30t-9.5 -47.5h66v-137h-137zM294 426v98q0 23 2 51t13.5 55.5t36 52t70.5 40.5l27 -57q-10 -3 -23 -8.5t-25 -17t-20.5 -30t-9.5 -47.5h66v-137h-137z" />
    <glyph glyph-name="quotedblright" unicode="&#x201d;" horiz-adv-x="500" 
d="M436 716v-98q0 -23 -2 -51t-13.5 -55.5t-36 -51.5t-70.5 -41l-27 57q10 3 23 8.5t25 17t20.5 30t9.5 47.5h-66v137h137zM206 716v-98q0 -23 -2 -51t-13.5 -55.5t-36 -51.5t-70.5 -41l-27 57q10 3 23 8.5t25 17t20.5 30t9.5 47.5h-66v137h137z" />
    <glyph glyph-name="quotedblbase" unicode="&#x201e;" horiz-adv-x="500" 
d="M434 137v-98q0 -23 -2 -51t-13.5 -55.5t-36 -52t-70.5 -40.5l-27 57q10 3 23 8.5t25 17t20.5 30t9.5 47.5h-66v137h137zM204 137v-98q0 -23 -2 -51t-13.5 -55.5t-36 -52t-70.5 -40.5l-27 57q10 3 23 8.5t25 17t20.5 30t9.5 47.5h-66v137h137z" />
    <glyph glyph-name="dagger" unicode="&#x2020;" 
d="M215 404h-179v114h179v189h129v-189h176v-114h-176v-575h-129v575z" />
    <glyph glyph-name="daggerdbl" unicode="&#x2021;" 
d="M215 -8h-179v114h179v320h-179v114h179v167h129v-167h176v-114h-176v-320h176v-114h-176v-163h-129v163z" />
    <glyph glyph-name="bullet" unicode="&#x2022;" horiz-adv-x="350" 
d="M320 353q0 -30 -11.5 -56t-31.5 -45.5t-46 -31t-56 -11.5t-56 11.5t-45.5 31t-31 45.5t-11.5 56t11.5 56.5t31 46t45.5 31t56 11.5t56 -11.5t46 -31t31.5 -46t11.5 -56.5z" />
    <glyph glyph-name="ellipsis" unicode="&#x2026;" horiz-adv-x="1000" 
d="M764 137h137v-137h-137v137zM98 137h137v-137h-137v137zM431 137h137v-137h-137v137z" />
    <glyph glyph-name="perthousand" unicode="&#x2030;" horiz-adv-x="1000" 
d="M96 540q0 -51 8.5 -80.5t36.5 -29.5q27 0 36 29.5t10 80.5q1 52 -9 82t-37 30q-28 0 -36.5 -30.5t-8.5 -81.5zM1 546q0 23 4.5 54t19.5 59.5t43 48.5t74 20q44 0 71 -18t42.5 -45.5t21 -59.5t5.5 -59q0 -22 -3.5 -55t-18 -63.5t-42.5 -52t-77 -21.5q-50 0 -78 21.5
t-42 52t-17 63.5t-3 55zM436 728h96l-299 -754h-96zM390 165q0 22 5 53t20 59.5t43 48.5t74 20q44 0 71 -18t42 -45.5t20.5 -59t5.5 -58.5q0 -19 -3 -52t-16.5 -64.5t-42 -54.5t-78.5 -23t-78.5 22t-42.5 52.5t-17 64t-3 55.5zM485 159q0 -51 9 -81t36 -30q28 0 37 30t9 81
t-9 81t-37 30q-27 0 -36 -30t-9 -81zM717 165q0 22 5 53t20 59.5t43 48.5t74 20q44 0 71.5 -18t42.5 -45.5t20 -59t5 -58.5q0 -19 -3 -52t-16.5 -64.5t-41.5 -54.5t-79 -23q-50 0 -78 22t-42 52.5t-17.5 64t-3.5 55.5zM812 159q0 -20 0.5 -40t5 -36t13.5 -26t26 -10
q29 0 37.5 32.5t8.5 79.5q0 51 -9 81t-36 30q-28 0 -37 -30t-9 -81z" />
    <glyph glyph-name="guilsinglleft" unicode="&#x2039;" horiz-adv-x="333" 
d="M172 260l127 -226h-108l-154 226l154 220h108z" />
    <glyph glyph-name="guilsinglright" unicode="&#x203a;" horiz-adv-x="333" 
d="M161 254l-127 226h108l154 -226l-154 -220h-108z" />
    <glyph glyph-name="fraction" unicode="&#x2044;" horiz-adv-x="167" 
d="M-167 -25l425 753h77l-425 -753h-77z" />
    <glyph glyph-name="trademark" unicode="&#x2122;" horiz-adv-x="1000" 
d="M209 646h-123v70h324v-70h-120v-330h-81v330zM458 716h127l72 -276h2l72 276h127v-400h-77v319h-2l-85 -319h-73l-84 319h-2v-319h-77v400z" />
    <glyph glyph-name="minus" unicode="&#x2212;" horiz-adv-x="584" 
d="M41 415h501v-126h-501v126z" />
    <glyph glyph-name="fi" unicode="&#xfb01;" horiz-adv-x="611" 
d="M91 518v40q0 23 2.5 52.5t17.5 55.5t47.5 44t92.5 18q21 0 52 -3.5t63 -13.5l-19 -96q-19 5 -37.5 6.5t-25.5 1.5q-21 0 -32.5 -6.5t-16.5 -16.5t-6 -22t-1 -23v-37h103v-109h-103v-409h-137v409h-76v109h76zM400 518h137v-518h-137v518zM400 716h137v-127h-137v127z" />
    <glyph glyph-name="fl" unicode="&#xfb02;" horiz-adv-x="611" 
d="M91 518v40q0 23 2.5 52.5t17.5 55.5t47.5 44t92.5 18q21 0 52 -3.5t63 -13.5l-19 -96q-19 5 -37.5 6.5t-25.5 1.5q-21 0 -32.5 -6.5t-16.5 -16.5t-6 -22t-1 -23v-37h103v-109h-103v-409h-137v409h-76v109h76zM401 716h137v-716h-137v716z" />
  </font>
</defs>
</svg>
