<svg xmlns="http://www.w3.org/2000/svg" height="10.046mm" width="10.586mm" version="1.1" viewBox="0 0 10.585611 10.046405">
 <g transform="translate(203.35 -102.31)">
  <g aria-label="" transform="scale(1,-1)" fill="#4d4d4e">
   <path d="m-194.3-103.74q-0.73025 0.73025-1.7357 1.1007-0.9525 0.34925-2.0108 0.3175-1.0478-0.0318-2.0002-0.42333-0.99483-0.41275-1.7145-1.1324-0.98425-0.98425-1.3758-2.3283-0.37042-1.3018-0.0952-2.6247 0.27516-1.3547 1.1748-2.4024l0.0423-0.0423q0.20108-0.24342 0.32808-0.3175 0.28575-0.17992 0.635-0.13758 0.34925 0.0318 0.59267 0.27516 0.24342 0.24342 0.28575 0.5715 0.0423 0.32809-0.10583 0.61384-0.0741 0.13758-0.16934 0.23283-0.73025 0.78317-1.0054 1.7992-0.26459 0.99483-0.0317 1.9579 0.24341 0.99484 0.9525 1.7039 0.78316 0.78317 1.8944 0.99483 1.0372 0.1905 2.0849-0.16933 1.0478-0.37042 1.7568-1.1853 0.56092-0.64559 0.85725-1.4499 0.30692-0.80433 0.29634-1.651 0-0.86783-0.33867-1.6722-0.43392-1.0266-1.3123-1.7039-0.84667-0.64559-1.9368-0.8255-1.0795-0.17992-2.1484 0.17991v-0.0106q1.2382-0.43392 2.4977-0.23283 1.2382 0.20108 2.2119 0.94191 1.016 0.77259 1.5134 1.9579 0.37042 0.86783 0.39158 1.8098 0.0212 0.92075-0.27516 1.7992-0.29634 0.87841-0.87842 1.6087-0.16933 0.23284-0.381 0.4445z" stroke-width=".26458" fill="#4d4d4e"/>
  </g>
 </g>
</svg>
