<svg id="Evernote" xmlns="http://www.w3.org/2000/svg" enable-background="new 0 0 20 20" viewBox="0 0 15.231456 17.818199" height="17.818" width="15.231" version="1.1" y="0px" x="0px">
 <path fill-opacity="1" fill="#bbbbbb" d="m14.9 3.316c0-1.2-1.7-1.3-1.7-1.3l-4.1-0.3s-0.1-1.1-0.9-1.5c-0.8-0.3-1.7-0.2-2.3-0.2-0.7 0-0.8 0.9-0.8 1.6v2.2c0 1-0.4 1.4-1.6 1.4h-2.3c-0.6 0-1.1 0.1-1.1 0.6s0.8 5 1.8 6c0.6 0.6 4.3 1 5.1 1s0.5-2.3 0.7-2.3 0.5 1.3 1.7 1.6 2.9 0.2 3 1.1c0.1 1.2 0.2 2.6-0.5 2.7l-1.7 0.1c-1.2-0.1-0.9-1.4-0.3-1.4h0.8l0.1-1.4s-2.7-0.3-2.8 1.5c-0.1 1.7 0.2 2.4 0.4 2.6s0.6 0.5 3.9 0.5c4.3 0.2 2.6-13.3 2.6-14.5zm-1.9 6c-0.1 0.2-0.8-0.3-1.4-0.3s-1.3 0.3-1.5 0.1 0.1-2 1.3-2 1.8 2 1.6 2.2zm-10.1-5.7h-2.9l3.5-3.4s-0.1 2.8-0.1 3-0.1 0.4-0.5 0.4z"/>
</svg>
